 <svg version="1.0" xmlns="http://www.w3.org/2000/svg" width="700.000000pt" height="463.000000pt" viewBox="0 0 700.000000 463.000000" preserveAspectRatio="xMidYMid meet">
<metadata>
Created by potrace 1.12, written by Peter Selinger 2001-2015
</metadata>
<g transform="translate(0.000000,463.000000) scale(0.100000,-0.100000)" fill="#000000" stroke="none">
<path d="M2480 4550 c-14 -4 -42 -8 -62 -9 -31 -1 -198 -41 -398 -96 -99 -27
-149 -29 -215 -5 -150 53 -180 55 -350 18 -65 -14 -211 -62 -300 -98 -156 -63
-430 -217 -498 -279 -29 -26 -264 -354 -348 -486 -101 -157 -113 -204 -128
-495 -6 -102 -15 -209 -20 -237 -24 -115 -30 -153 -47 -276 -15 -110 -16 -141
-6 -222 13 -101 29 -180 43 -207 5 -10 9 -22 9 -28 0 -21 75 -167 131 -256
107 -170 136 -256 127 -385 -8 -102 5 -198 35 -261 51 -107 201 -244 342 -312
80 -39 83 -40 208 -81 90 -29 123 -35 196 -35 96 0 132 15 174 72 37 50 -10
66 -67 23 -27 -20 -44 -25 -95 -25 -122 0 -336 73 -481 165 -72 45 -183 163
-214 228 -26 53 -29 69 -36 235 -10 212 -23 252 -137 431 -112 175 -157 307
-170 494 -6 96 0 144 53 415 30 151 34 192 34 329 0 89 5 172 11 192 31 98
150 296 263 439 25 31 73 95 108 142 52 71 79 96 161 151 92 62 298 171 377
199 19 6 44 16 55 21 37 16 80 31 115 41 19 5 51 13 70 19 73 19 176 39 205
39 28 0 133 -30 182 -53 32 -14 150 -13 213 2 30 8 96 27 145 43 182 59 261
71 490 72 267 1 337 -13 550 -114 235 -110 357 -154 470 -171 118 -17 175 -30
295 -66 146 -45 230 -89 303 -161 82 -81 115 -141 227 -417 39 -95 87 -242
121 -365 12 -41 25 -88 29 -105 66 -233 94 -367 93 -435 -1 -59 -16 -128 -59
-274 -31 -108 -11 -198 73 -333 29 -45 33 -61 33 -117 0 -36 -4 -75 -9 -88 -5
-13 -14 -41 -21 -63 -15 -49 -33 -90 -75 -175 -49 -98 -67 -129 -134 -221
-112 -154 -138 -183 -325 -368 -114 -112 -186 -190 -184 -200 2 -8 16 -20 32
-26 28 -10 33 -6 184 150 238 246 375 416 457 565 11 21 31 57 45 81 41 73 60
130 71 211 5 44 19 93 30 112 18 31 19 39 8 78 -7 24 -22 59 -32 78 -85 153
-96 196 -73 287 9 37 26 104 37 148 25 98 27 217 6 310 -8 39 -21 97 -28 130
-6 33 -21 87 -31 120 -11 33 -33 112 -49 175 -16 63 -33 124 -38 135 -5 11
-19 47 -31 80 -36 100 -52 139 -61 157 -5 10 -9 22 -9 28 0 24 -117 262 -161
326 -89 130 -287 236 -539 287 -43 9 -172 36 -244 52 -71 15 -195 63 -356 137
-52 25 -111 50 -130 57 -19 7 -44 17 -55 21 -39 15 -107 31 -193 45 -93 16
-359 19 -402 5z"></path>
<path d="M2885 4081 c-33 -16 -72 -41 -86 -57 -34 -37 -149 -219 -149 -235 0
-7 -9 -32 -20 -56 -11 -24 -29 -63 -40 -87 -12 -24 -30 -75 -40 -112 -11 -37
-24 -72 -30 -78 -5 -5 -10 -22 -10 -37 0 -15 -4 -31 -10 -34 -5 -3 -10 -20
-10 -36 0 -17 -8 -44 -17 -62 -9 -18 -18 -47 -19 -65 -2 -19 -10 -45 -18 -58
-9 -13 -16 -36 -16 -53 0 -16 -6 -31 -15 -35 -8 -3 -15 -16 -15 -30 0 -14 -4
-27 -9 -30 -5 -3 -7 -23 -4 -44 4 -27 1 -42 -11 -51 -9 -7 -16 -24 -16 -38 0
-13 -7 -38 -16 -55 -9 -18 -14 -42 -10 -59 3 -17 0 -32 -9 -39 -8 -7 -15 -29
-15 -49 -1 -20 -7 -54 -15 -75 -8 -22 -12 -43 -9 -47 2 -4 -5 -27 -16 -50 -11
-24 -20 -57 -20 -72 0 -16 -5 -37 -10 -47 -9 -17 -140 -110 -154 -110 -4 0 -6
40 -6 88 0 75 -4 96 -26 140 -30 61 -88 114 -143 130 -134 41 -280 -22 -526
-227 -145 -121 -593 -575 -684 -693 -18 -24 1 -48 38 -48 21 0 38 14 79 66 85
107 417 448 550 565 252 221 398 299 505 270 95 -27 127 -82 127 -219 0 -57
-5 -107 -13 -122 -13 -27 -143 -115 -477 -326 -405 -255 -595 -404 -651 -509
-35 -65 -23 -79 72 -83 128 -5 290 23 432 73 119 42 391 265 476 390 15 22 43
63 62 90 52 75 103 173 123 238 18 59 22 62 130 133 21 14 40 24 41 22 14 -14
-1 -137 -25 -208 -4 -14 -18 -59 -29 -100 -12 -41 -26 -83 -31 -92 -6 -10 -10
-28 -10 -41 0 -12 -9 -54 -21 -92 -52 -180 -59 -213 -49 -239 21 -55 70 -15
70 57 0 25 6 66 14 89 7 24 19 63 26 88 7 25 16 56 20 70 19 61 31 108 40 150
5 25 18 88 30 140 12 52 25 115 29 140 13 83 28 99 181 203 234 158 227 155
215 110 -3 -16 -10 -55 -15 -88 -11 -75 -53 -252 -63 -261 -4 -4 -7 -21 -7
-38 0 -28 -37 -165 -61 -224 -5 -13 -9 -30 -9 -39 0 -8 -11 -38 -25 -66 -29
-57 -27 -77 9 -77 24 0 66 44 66 69 0 6 4 19 9 29 8 15 40 125 72 247 6 22 14
54 19 70 5 17 22 98 39 180 63 309 63 310 94 327 24 12 137 96 212 157 28 22
75 59 105 83 30 23 109 96 176 162 126 127 205 236 258 356 57 130 66 167 66
278 0 76 -4 101 -24 144 -72 157 -296 269 -534 268 -74 -1 -96 -5 -147 -29z
m300 -56 c173 -46 285 -125 322 -227 16 -45 16 -194 -1 -248 -55 -180 -231
-410 -451 -588 -38 -31 -72 -59 -75 -62 -16 -16 -198 -150 -203 -150 -15 0 -7
51 54 360 6 30 16 80 24 110 13 52 18 78 46 215 7 33 19 70 27 83 14 21 13 25
-8 47 -51 54 -77 28 -95 -93 -7 -48 -21 -124 -30 -168 -10 -43 -21 -97 -25
-119 -4 -22 -15 -78 -24 -125 -9 -47 -19 -101 -22 -120 -3 -19 -9 -51 -14 -70
-5 -19 -14 -68 -20 -108 -12 -73 -45 -132 -74 -132 -7 0 -31 -16 -53 -35 -23
-19 -44 -35 -47 -35 -8 0 -80 -47 -134 -87 -74 -56 -83 -45 -56 62 9 33 22 87
30 120 8 33 21 72 29 87 8 14 15 40 15 57 0 17 4 39 9 49 10 21 27 76 36 119
4 18 11 35 16 38 5 4 9 19 9 35 0 16 4 39 9 52 5 13 21 64 36 113 15 50 31 98
36 107 5 10 9 25 9 33 0 22 31 118 41 129 5 6 9 18 9 28 0 10 4 26 9 36 11 20
30 66 61 147 13 33 26 65 30 70 4 6 24 42 45 80 58 108 144 190 220 209 30 7
153 -4 210 -19z m-1255 -1946 c0 -6 -16 -42 -35 -80 -121 -242 -323 -448 -530
-543 -33 -15 -68 -32 -77 -37 -10 -5 -28 -9 -41 -9 -13 0 -27 -3 -31 -7 -28
-28 -286 -45 -286 -19 0 12 95 100 198 183 55 45 303 209 523 347 102 64 204
129 225 145 43 32 54 37 54 20z"></path>
<path d="M1305 3470 c-3 -5 -12 -10 -20 -10 -36 0 -208 -92 -256 -137 -57 -53
-141 -154 -183 -221 -35 -56 -34 -115 2 -120 31 -5 62 24 62 58 0 27 59 118
123 189 56 62 56 61 23 -64 -34 -128 -44 -203 -65 -485 -5 -69 -15 -138 -22
-153 -11 -23 -10 -30 3 -43 21 -21 52 -10 67 23 7 15 17 86 22 158 19 282 28
341 69 483 6 17 14 48 19 67 5 20 15 43 22 51 7 9 13 30 14 47 0 33 1 33 97
72 72 29 88 48 62 76 -19 21 -30 24 -39 9z"></path>
<path d="M1391 3432 c-11 -16 -27 -48 -36 -73 -40 -107 -120 -280 -175 -377
-38 -67 -40 -109 -5 -118 37 -9 68 2 143 49 91 59 142 81 154 69 13 -13 -31
-89 -116 -200 -122 -159 -136 -177 -136 -184 0 -12 43 -48 57 -48 7 0 23 20
36 44 12 25 57 91 101 148 81 108 136 198 136 224 0 8 6 23 13 35 10 18 8 23
-16 45 -24 20 -35 23 -65 18 -38 -7 -146 -56 -194 -88 -37 -24 -35 -11 11 81
47 94 111 232 111 239 0 3 13 32 30 65 23 47 28 65 20 80 -15 27 -45 23 -69
-9z"></path>
<path d="M540 3141 c-37 -30 -57 -64 -86 -144 -18 -51 -24 -51 -44 3 -27 72
-50 101 -79 98 -31 -4 -40 -37 -19 -71 8 -12 27 -58 42 -102 27 -78 32 -90 55
-148 6 -15 11 -47 11 -70 0 -41 9 -79 68 -307 48 -180 65 -211 101 -177 11 10
13 6 7 -21 -7 -40 15 -53 45 -26 23 21 109 139 109 150 0 4 6 15 14 23 23 25
76 130 102 201 32 86 33 179 3 206 -31 28 -115 25 -157 -5 -35 -24 -58 -21
-43 7 13 25 31 162 31 241 0 72 -13 125 -38 154 -24 27 -81 22 -122 -12z m80
-67 c25 -64 -5 -327 -46 -406 -8 -15 -14 -34 -14 -43 0 -42 -27 0 -57 86 l-32
94 15 85 c9 49 26 104 41 130 49 85 76 101 93 54z m184 -370 c39 -15 5 -156
-67 -278 -50 -84 -111 -176 -118 -176 -3 0 -12 35 -18 78 -6 42 -17 96 -23
120 -10 38 -8 48 13 90 29 56 101 131 149 154 40 20 42 20 64 12z"></path>
<path d="M3735 2768 c-44 -23 -110 -73 -167 -127 -34 -31 -38 -33 -38 -15 0
22 -29 54 -48 54 -33 0 -126 -76 -169 -137 -30 -44 -40 -29 -36 50 6 86 -5
106 -63 114 -29 4 -43 1 -53 -11 -12 -14 -10 -20 13 -41 26 -24 27 -27 21
-113 -8 -116 -24 -223 -34 -236 -19 -23 -99 -224 -115 -287 -9 -36 -16 -87
-16 -113 0 -26 -5 -89 -12 -141 -9 -75 -9 -97 2 -110 20 -24 56 -18 84 15 30
37 48 94 106 358 10 42 17 53 36 58 28 7 48 34 94 122 17 34 37 62 44 62 7 0
22 -13 33 -28 32 -44 87 -66 145 -59 125 15 404 215 360 259 -8 8 -18 6 -38
-8 -98 -70 -239 -154 -258 -154 -8 0 -18 -4 -21 -10 -3 -5 -27 -10 -52 -10
-34 0 -50 5 -64 22 -26 29 -24 35 14 53 19 9 85 69 148 133 118 123 159 171
198 235 l23 38 -23 25 c-28 29 -61 30 -114 2z m25 -76 c0 -15 -238 -257 -245
-250 -13 12 43 87 131 176 71 72 114 100 114 74z m-350 -163 c0 -10 -26 -72
-63 -147 -27 -54 -93 -127 -102 -112 -13 21 26 107 87 188 59 78 78 95 78 71z
m-287 -551 c-3 -29 -9 -57 -14 -62 -5 -6 -9 -22 -9 -37 0 -15 -4 -31 -10 -34
-13 -8 -12 36 3 105 20 91 39 109 30 28z"></path>
<path d="M2978 2614 c-11 -23 -8 -28 30 -66 49 -47 57 -70 49 -146 -15 -134
-142 -382 -197 -382 -37 0 -44 25 -31 103 13 73 38 154 53 172 4 5 8 16 8 25
1 8 16 38 35 65 34 49 34 50 15 69 -18 18 -20 18 -44 2 -33 -21 -52 -50 -77
-118 -50 -130 -69 -208 -69 -275 0 -48 4 -61 27 -85 50 -52 121 -34 191 49 36
44 132 227 132 253 0 5 4 18 9 28 12 24 31 107 31 138 0 61 -23 105 -78 150
-30 24 -58 44 -63 44 -5 0 -15 -11 -21 -26z"></path>
<path d="M5746 992 c-14 -17 -15 -28 -6 -92 10 -74 22 -100 45 -100 24 0 42
36 48 96 6 53 3 66 -14 88 -24 31 -49 33 -73 8z"></path>
<path d="M6112 998 c-6 -9 -6 -33 0 -73 7 -39 7 -112 1 -205 -8 -123 -7 -148
5 -162 21 -25 37 -22 60 7 25 31 32 31 32 2 0 -29 18 -47 46 -47 35 0 46 23
39 77 -16 108 -31 147 -63 168 l-31 20 -1 93 c0 51 -5 102 -10 113 -12 22 -62
26 -78 7z"></path>
<path d="M4650 924 c-14 -8 -35 -12 -46 -9 -12 3 -26 -1 -32 -8 -6 -7 -12 -88
-13 -200 l-2 -188 25 -25 25 -25 73 43 c82 48 112 87 114 148 0 28 -6 46 -23
64 -23 25 -23 26 -6 62 12 26 20 33 28 25 6 -6 24 -11 40 -11 26 0 28 -3 22
-22 -12 -40 -22 -162 -15 -188 7 -28 42 -39 66 -20 7 7 14 29 15 49 0 61 25
182 40 197 8 7 37 17 64 20 l50 7 -37 -40 c-21 -21 -38 -46 -38 -54 0 -19 46
-61 83 -77 15 -6 27 -15 27 -19 0 -11 -59 -43 -79 -43 -19 0 -51 -30 -51 -47
0 -6 11 -18 25 -27 25 -16 28 -16 100 19 74 35 115 73 115 105 0 20 -61 70
-85 70 -25 0 -30 30 -7 46 12 8 27 20 34 27 7 7 26 18 41 25 58 25 37 75 -30
70 -18 -1 -38 3 -45 10 -16 16 -83 15 -182 -2 -151 -27 -172 -27 -191 -6 -10
11 -26 20 -36 20 -10 0 -21 5 -24 10 -8 12 -14 12 -45 -6z m31 -137 c-14 -36
-31 -34 -31 3 0 17 7 33 18 39 22 12 27 -5 13 -42z m35 -128 c7 -12 -44 -69
-63 -69 -20 0 -15 31 9 57 23 25 43 29 54 12z"></path>
<path d="M6738 760 c-21 -4 -46 -14 -56 -23 -16 -15 -21 -15 -38 -2 -23 17
-105 20 -122 3 -7 -7 -12 -22 -12 -35 0 -23 -14 -31 -25 -14 -7 12 -64 41 -80
41 -20 0 -85 -78 -85 -101 0 -33 29 -79 58 -90 33 -13 70 -4 99 23 13 12 25
20 27 17 2 -2 10 -42 18 -89 13 -83 14 -85 43 -88 38 -5 58 20 44 55 -19 52
-11 87 32 134 38 41 41 43 52 24 6 -11 24 -32 40 -47 42 -40 112 -40 151 0 24
26 25 30 11 42 -9 8 -29 10 -50 7 -54 -9 -50 9 8 37 88 41 96 68 31 99 -36 18
-82 20 -146 7z"></path>
<path d="M5873 750 c-29 -12 -31 -54 -2 -73 15 -11 30 -12 57 -6 20 5 51 9 68
9 18 0 38 8 49 20 16 18 17 22 4 35 -17 17 -144 28 -176 15z"></path>
<path d="M5715 738 c-3 -7 -6 -44 -7 -83 -3 -65 -5 -70 -26 -73 -13 -2 -34 4
-47 12 -30 20 -49 20 -65 1 -11 -13 -36 -15 -153 -10 -121 4 -143 2 -159 -12
-23 -21 -23 -46 2 -68 18 -16 28 -17 137 -5 164 17 271 17 311 0 30 -13 34
-13 54 8 18 17 23 36 26 92 2 38 1 81 -2 94 -11 45 -60 75 -71 44z"></path>
<path d="M2379 703 c-14 -16 -41 -48 -61 -73 -54 -68 -157 -170 -218 -217 -30
-23 -88 -67 -129 -98 -65 -51 -273 -192 -326 -221 -32 -18 -14 -29 39 -26 60
5 96 26 333 204 167 125 275 223 397 361 49 56 56 70 46 82 -19 23 -54 18 -81
-12z"></path>
<path d="M3068 709 c-26 -15 -22 -34 20 -92 21 -29 81 -113 132 -187 102 -147
155 -214 241 -300 50 -50 63 -58 105 -63 27 -3 53 -2 57 3 5 4 -35 50 -88 101
-104 100 -160 171 -279 351 -73 112 -144 198 -162 198 -5 0 -17 -5 -26 -11z"></path>
</g>
</svg>