 <svg version="1.0" xmlns="http://www.w3.org/2000/svg" width="700.000000pt" height="700.000000pt" viewBox="0 0 700.000000 700.000000" preserveAspectRatio="xMidYMid meet">
<metadata>
Created by potrace 1.12, written by Peter Selinger 2001-2015
</metadata>
<g transform="translate(0.000000,700.000000) scale(0.100000,-0.100000)" fill="#000000" stroke="none">
<path d="M4915 6640 c-140 -16 -316 -66 -442 -126 -40 -19 -76 -34 -81 -34
-20 0 -141 -61 -207 -104 -128 -82 -219 -147 -312 -221 -41 -33 -85 -67 -97
-75 -13 -8 -37 -32 -56 -53 -18 -21 -53 -52 -77 -68 -23 -17 -43 -35 -43 -42
0 -7 -20 -31 -44 -54 -67 -65 -176 -189 -176 -201 0 -6 -18 -30 -40 -53 -22
-24 -40 -51 -40 -61 0 -9 -12 -32 -27 -50 -16 -18 -52 -82 -82 -143 -30 -60
-62 -126 -71 -145 -32 -65 -42 -133 -37 -262 6 -138 22 -194 80 -281 91 -136
175 -172 432 -182 223 -9 340 4 490 55 66 23 147 50 180 59 64 20 150 56 228
96 26 14 53 25 61 25 7 0 40 16 72 35 32 19 81 44 109 54 46 18 168 96 239
154 l30 24 -23 12 c-24 13 -24 13 -92 -41 -125 -99 -614 -324 -777 -357 -30
-6 -63 -16 -74 -22 -45 -24 -236 -53 -375 -56 -124 -4 -152 -1 -231 20 -89 24
-113 37 -197 110 -77 68 -115 174 -115 327 0 81 20 163 58 236 5 10 29 60 53
109 24 50 53 104 66 121 13 17 23 35 23 41 0 9 30 51 150 214 55 74 254 277
322 327 29 22 67 52 85 68 18 16 53 45 78 64 25 19 65 51 89 71 24 20 55 39
69 43 13 3 55 24 93 47 59 36 205 109 339 169 118 53 175 72 258 85 51 9 124
22 162 30 83 17 129 18 187 6 24 -6 72 -15 107 -21 72 -13 170 -69 219 -125
17 -18 40 -60 52 -92 19 -50 21 -72 17 -158 -3 -72 -10 -113 -26 -148 -11 -27
-21 -59 -21 -72 0 -29 -49 -154 -101 -258 -21 -43 -39 -84 -39 -91 0 -15 -33
-92 -133 -306 -19 -41 -49 -109 -67 -150 -17 -41 -42 -92 -56 -112 -13 -21
-24 -42 -24 -48 0 -6 -13 -34 -29 -63 -16 -28 -37 -79 -47 -112 -9 -33 -33
-96 -54 -140 -20 -44 -42 -93 -48 -110 -6 -16 -31 -82 -56 -145 -24 -63 -56
-153 -71 -200 -45 -150 -64 -214 -70 -240 -3 -14 -15 -54 -25 -90 -10 -36 -26
-96 -35 -135 -9 -38 -23 -97 -31 -130 -8 -33 -23 -109 -34 -168 -10 -60 -28
-123 -39 -141 -11 -17 -54 -59 -96 -91 -41 -33 -101 -81 -133 -106 -31 -25
-77 -60 -102 -77 -42 -31 -84 -62 -162 -123 -18 -14 -94 -72 -168 -127 -192
-144 -340 -258 -375 -291 -16 -15 -42 -36 -56 -47 -14 -10 -52 -39 -83 -63
-47 -37 -69 -46 -129 -57 -40 -7 -92 -19 -117 -27 -25 -8 -94 -28 -155 -45
-60 -16 -166 -50 -235 -75 -69 -24 -150 -53 -180 -62 -109 -36 -210 -77 -245
-101 -20 -13 -45 -24 -57 -24 -12 0 -30 -7 -40 -17 -20 -18 -38 -10 -23 11 6
7 31 42 58 77 51 68 56 83 31 93 -36 14 -64 3 -164 -64 -58 -38 -112 -70 -121
-70 -8 0 -23 6 -33 13 -17 13 -17 22 -6 163 7 82 12 168 11 192 -2 49 5 52 35
15 31 -38 48 -22 33 32 -15 53 -7 151 16 199 32 67 173 166 237 166 59 0 61
-6 53 -124 -7 -114 -1 -130 33 -73 47 79 48 212 2 237 -75 40 -261 -35 -329
-132 -17 -24 -36 -52 -44 -62 -11 -16 -12 -8 -6 60 9 91 -1 121 -44 142 -26
13 -31 12 -52 -8 -12 -11 -31 -38 -41 -58 -10 -20 -26 -48 -35 -62 -9 -14 -24
-52 -34 -85 -9 -33 -31 -96 -47 -140 -17 -44 -38 -100 -47 -125 -23 -61 -42
-62 -75 0 -47 86 -83 92 -114 18 -30 -70 -72 -129 -99 -139 -19 -7 -29 1 -73
55 -27 35 -50 69 -50 75 0 10 14 39 88 186 32 63 42 155 18 174 -26 22 -46 6
-46 -37 0 -87 -56 -232 -105 -270 -14 -11 -48 -23 -77 -27 -68 -10 -105 -26
-162 -73 -59 -49 -76 -74 -87 -126 -5 -22 -14 -51 -20 -63 -18 -34 1 -77 35
-81 16 -2 38 -1 50 2 28 7 155 120 208 185 23 28 46 51 52 51 6 0 36 -25 67
-56 44 -43 65 -57 95 -61 36 -5 43 -1 77 33 21 22 47 58 58 82 l21 42 29 -40
c30 -41 63 -56 99 -45 19 6 79 116 108 200 22 63 112 269 122 279 14 14 12
-45 -6 -239 -8 -88 -18 -228 -21 -310 l-5 -150 -92 -43 c-92 -44 -260 -138
-351 -197 -27 -18 -60 -36 -73 -40 -12 -3 -48 -29 -79 -56 -31 -27 -61 -49
-66 -49 -5 0 -28 -15 -51 -34 -23 -18 -55 -40 -72 -49 -17 -9 -37 -23 -45 -33
-8 -10 -36 -32 -64 -50 -61 -39 -221 -179 -235 -205 -12 -22 3 -59 24 -59 11
0 352 168 416 205 25 14 92 48 260 131 47 23 96 53 109 68 14 14 32 26 42 26
10 0 21 4 24 10 4 6 15 4 30 -6 36 -24 78 -10 123 41 47 54 89 76 103 54 8
-13 12 -96 15 -359 3 -167 18 -279 42 -303 17 -16 24 -19 34 -9 9 9 9 26 0 75
-7 36 -12 125 -12 199 0 75 -5 160 -12 189 -13 58 -15 171 -3 231 6 33 12 38
68 60 33 12 74 28 91 35 17 7 63 12 103 12 40 1 95 6 123 12 43 9 67 7 152
-11 65 -14 117 -20 141 -16 106 17 241 83 380 184 36 26 104 74 151 107 48 33
109 78 135 100 37 33 63 44 126 59 44 11 102 25 129 33 27 7 69 13 93 13 24 0
56 6 71 14 31 15 151 40 159 32 3 -3 -11 -24 -31 -48 -37 -43 -86 -135 -86
-161 0 -8 8 -25 18 -37 l19 -23 78 26 c43 15 81 25 83 22 3 -3 -4 -15 -15 -28
-35 -38 -45 -65 -33 -87 6 -11 17 -20 25 -20 13 0 70 64 129 144 19 25 50 48
90 67 67 32 93 35 119 16 15 -10 16 -19 7 -66 -10 -54 -3 -81 23 -81 5 0 30
-10 54 -22 40 -20 47 -21 71 -8 14 8 51 50 81 93 77 108 140 143 126 70 -8
-44 -67 -195 -90 -229 -9 -14 -88 -60 -197 -114 -272 -136 -437 -246 -544
-362 -34 -37 -45 -59 -58 -116 -23 -102 -21 -124 17 -173 41 -54 80 -65 177
-51 115 17 164 46 291 173 117 117 169 181 169 207 0 9 9 25 19 36 29 32 99
172 106 215 8 47 61 129 95 146 138 68 201 95 219 95 24 0 96 -34 123 -57 42
-37 396 -66 528 -44 216 36 272 51 400 103 118 48 120 49 205 114 115 86 145
122 152 183 l6 52 -49 47 c-54 52 -100 78 -166 92 -24 5 -61 13 -83 19 -166
41 -707 37 -1182 -10 -139 -14 -146 -12 -163 53 -12 44 -29 387 -21 404 14 28
403 343 540 437 31 21 78 57 106 80 27 23 74 58 105 79 30 21 82 58 115 83 33
25 83 60 110 79 28 19 64 48 80 66 17 17 46 41 65 52 19 12 63 46 98 76 55 48
63 58 60 86 -3 26 -7 31 -33 34 -49 5 -212 -75 -298 -145 -15 -12 -47 -32 -70
-43 -23 -11 -61 -32 -83 -47 -84 -56 -220 -150 -269 -186 -27 -20 -73 -53
-102 -72 -28 -20 -57 -43 -64 -51 -7 -8 -42 -35 -78 -59 -36 -25 -102 -69
-146 -100 -44 -30 -84 -55 -88 -55 -23 0 18 190 119 545 23 83 45 165 49 184
4 19 18 57 31 85 13 28 24 62 24 75 0 14 9 43 19 65 11 23 40 95 65 161 66
177 104 275 126 320 11 22 52 112 91 200 102 229 105 236 176 385 36 74 72
153 79 174 8 22 18 44 23 50 5 6 16 29 24 51 9 22 27 72 42 110 70 183 95 290
95 401 0 148 -32 235 -116 317 -65 62 -108 87 -151 87 -18 0 -58 7 -90 15 -59
16 -207 18 -318 5z m835 -2564 c0 -2 -34 -30 -75 -61 -41 -32 -86 -72 -100
-91 -16 -21 -40 -37 -65 -44 -21 -6 -42 -15 -45 -20 -3 -5 -36 -27 -73 -49
-37 -21 -78 -51 -92 -66 -14 -15 -38 -34 -55 -42 -32 -17 -104 -71 -190 -143
-29 -25 -76 -61 -105 -80 -29 -19 -89 -65 -134 -103 -44 -37 -99 -82 -120
-100 -22 -17 -54 -44 -71 -60 l-33 -27 -5 32 c-2 18 0 43 5 54 11 22 72 77
123 110 38 24 152 110 185 139 14 13 41 31 60 40 19 10 55 35 80 55 25 21 59
45 75 53 17 8 52 33 77 54 26 21 68 49 95 63 26 14 73 46 103 71 30 25 84 63
120 85 36 21 79 48 95 61 17 12 55 33 85 47 59 28 60 28 60 22z m-1215 -899
c-6 -30 -17 -50 -42 -72 -77 -66 -460 -455 -488 -495 -44 -62 -100 -109 -122
-104 -25 7 -190 -21 -328 -56 -65 -17 -66 -17 -94 -37 -22 -16 -23 -16 -20 2
2 10 24 29 48 42 24 12 65 42 91 65 91 82 196 164 320 253 69 49 139 100 157
114 17 14 59 49 93 76 34 28 86 71 116 98 30 26 60 47 67 47 7 0 27 14 46 30
18 17 49 39 69 49 21 10 46 29 56 40 17 19 21 20 29 6 5 -9 5 -35 2 -58z m-11
-158 c4 -28 4 -93 1 -143 -5 -63 -2 -114 8 -166 19 -94 15 -100 -90 -110 -93
-10 -349 -47 -379 -56 -30 -8 -39 12 -20 41 22 33 102 115 113 115 5 0 35 34
68 75 32 41 65 77 74 80 26 9 201 182 201 199 0 9 4 16 9 16 5 0 11 -23 15
-51z m1406 -415 c140 -28 198 -51 235 -96 47 -56 28 -110 -67 -188 -101 -85
-282 -167 -459 -209 -96 -23 -129 -26 -129 -11 0 6 9 10 20 10 12 0 33 6 48
14 15 8 65 21 112 31 95 19 112 28 81 44 -26 14 -121 -8 -294 -69 -138 -48
-162 -47 -154 7 4 19 15 53 27 74 11 22 20 47 20 57 0 9 11 41 25 70 33 71 32
105 -2 132 -14 11 -34 37 -43 58 -12 26 -30 43 -62 60 -57 28 -81 28 -163 -2
-72 -26 -126 -59 -196 -121 -26 -22 -62 -51 -81 -65 -19 -13 -48 -41 -63 -62
-16 -21 -34 -37 -40 -35 -15 4 -97 171 -119 244 -6 18 -2 25 16 32 31 12 285
41 378 42 41 1 104 4 140 8 36 3 196 5 355 3 261 -3 303 -6 415 -28z m-657
-56 c15 -6 27 -17 27 -27 0 -42 -170 -161 -310 -217 -36 -14 -86 -35 -113 -47
-35 -15 -50 -18 -58 -10 -24 24 2 61 96 139 133 110 277 191 315 177 8 -3 27
-10 43 -15z m-703 -15 c5 -16 16 -41 25 -56 22 -41 19 -52 -19 -65 -39 -14
-99 -77 -138 -145 -20 -35 -34 -47 -51 -47 -34 0 -47 19 -47 68 0 35 -6 49
-29 73 -26 26 -37 29 -89 29 -47 0 -71 -6 -118 -31 -32 -17 -68 -39 -79 -49
-14 -12 -32 -16 -60 -13 -22 2 -62 -3 -90 -11 -27 -8 -51 -13 -53 -11 -6 6 22
47 84 126 61 77 59 76 304 118 216 37 222 38 293 40 54 1 58 -1 67 -26z m790
-133 c0 -5 -18 -58 -41 -117 -22 -59 -43 -129 -46 -156 l-6 -50 -80 7 c-117
10 -297 74 -297 106 0 5 46 33 103 61 56 28 127 64 157 81 63 35 167 76 193
77 9 1 17 -3 17 -9z m-4176 -9 c8 -12 -115 -162 -168 -205 -77 -63 -108 -40
-67 50 21 46 77 114 95 114 7 0 27 11 46 25 33 25 84 33 94 16z m1975 -114
c-19 -17 -49 -40 -65 -50 -16 -9 -45 -28 -64 -42 -19 -13 -67 -47 -106 -75
-150 -105 -283 -155 -369 -138 -22 5 -62 10 -90 13 -142 12 -175 25 -117 45
15 6 39 17 54 25 14 8 37 15 50 15 12 0 46 11 74 24 28 13 78 31 110 40 32 9
95 29 139 45 44 16 111 36 150 45 38 9 95 28 125 43 107 50 159 55 109 10z
m1575 -36 l47 -48 -46 -31 c-50 -33 -113 -58 -122 -48 -3 3 4 21 16 41 11 20
21 42 21 48 0 23 21 87 28 87 4 0 29 -22 56 -49z m-2617 -211 c-18 -53 -23
-61 -56 -71 -20 -6 -51 -20 -68 -31 -25 -15 -33 -16 -33 -6 0 26 45 76 110
121 36 25 65 46 66 46 0 1 -8 -26 -19 -59z m-241 -42 c5 -18 -5 -34 -64 -90
-39 -37 -93 -78 -119 -92 -26 -13 -75 -40 -108 -60 -33 -20 -81 -43 -107 -51
-42 -12 -80 -36 -168 -103 -14 -11 -41 -23 -60 -27 -19 -4 -46 -14 -60 -23
-14 -9 -70 -38 -125 -65 l-100 -47 40 34 c96 84 221 176 275 203 19 10 52 31
72 48 21 16 53 42 72 58 18 15 38 27 43 27 5 0 25 12 44 26 30 22 128 81 207
123 32 18 134 60 144 61 4 0 10 -10 14 -22z m2604 -30 c0 -27 -91 -228 -120
-266 -60 -79 -90 -123 -90 -135 0 -16 -133 -147 -184 -181 -21 -14 -46 -26
-55 -26 -9 0 -34 -9 -55 -21 -45 -24 -110 -28 -154 -10 -82 34 -63 156 41 268
33 35 78 77 101 93 86 62 174 118 222 142 79 40 227 122 254 141 32 23 40 22
40 -5z"></path>
<path d="M3322 797 c-12 -13 -22 -27 -22 -31 0 -4 -23 -33 -50 -64 -55 -62
-69 -94 -50 -117 17 -20 32 -19 65 7 l28 22 -7 -36 c-15 -82 21 -90 58 -13 31
67 32 79 5 104 l-21 20 32 44 c17 25 30 53 28 63 -5 28 -40 28 -66 1z"></path>
<path d="M2798 783 c-33 -36 -100 -129 -121 -168 -23 -43 -19 11 7 93 6 19 4
22 -16 22 -31 0 -48 -18 -48 -50 0 -15 -8 -51 -18 -81 -10 -30 -27 -91 -37
-136 -15 -67 -16 -85 -5 -98 15 -18 40 -20 40 -2 0 55 204 386 225 365 3 -3
-12 -47 -34 -98 -33 -77 -37 -97 -29 -116 6 -13 15 -24 20 -24 5 0 32 16 60
35 81 56 96 38 43 -49 -19 -32 -35 -61 -35 -65 1 -18 18 -31 34 -25 18 7 116
145 116 164 0 25 46 99 98 159 53 60 55 64 37 77 -10 8 -29 14 -41 14 -29 0
-143 -86 -164 -123 -14 -26 -14 -29 10 -47 14 -10 23 -21 20 -23 -3 -3 -28 -3
-56 0 l-52 5 24 69 c29 83 30 105 5 119 -32 17 -56 12 -83 -17z"></path>
<path d="M3991 789 c-46 -116 -65 -265 -36 -289 22 -18 32 -5 38 51 4 29 18
88 33 132 l26 79 -25 26 -26 25 -10 -24z"></path>
<path d="M4613 781 c-3 -11 -15 -21 -27 -23 -19 -3 -21 -9 -21 -70 0 -36 3
-70 7 -74 12 -12 36 15 44 49 l7 32 12 -48 c15 -58 45 -102 71 -102 26 0 114
168 98 185 -9 9 -23 -2 -55 -44 -24 -30 -48 -54 -54 -52 -5 1 -15 29 -22 61
-14 70 -28 105 -44 105 -6 0 -13 -9 -16 -19z"></path>
<path d="M3618 776 c-58 -16 -78 -32 -78 -63 0 -32 24 -39 57 -15 37 26 97 42
161 42 l52 0 -1 -47 c0 -56 -27 -131 -51 -146 -13 -9 -28 -4 -68 21 -49 31
-85 41 -78 23 7 -18 115 -98 142 -105 46 -11 72 14 86 81 7 31 17 67 22 79 13
29 2 109 -18 129 -19 19 -157 20 -226 1z"></path>
<path d="M4300 757 c0 -30 -24 -63 -51 -70 -16 -4 -23 1 -34 27 -19 45 -33 54
-84 52 l-45 -1 -18 -60 c-22 -74 -23 -114 -3 -122 22 -8 50 21 70 72 9 25 20
45 23 45 4 -1 16 -15 27 -33 19 -29 25 -32 68 -32 41 0 49 -3 54 -22 8 -33 18
-28 31 16 23 74 10 151 -23 151 -9 0 -15 -9 -15 -23z"></path>
<path d="M4486 724 c-9 -8 -19 -27 -22 -40 -7 -29 11 -77 27 -72 16 5 52 95
45 113 -7 19 -30 19 -50 -1z"></path>
<path d="M3460 520 c0 -23 22 -35 45 -26 13 4 14 10 5 26 -14 27 -50 27 -50 0z"></path>
<path d="M2221 460 c-24 -16 -67 -36 -97 -46 -30 -9 -54 -20 -54 -24 0 -21 69
-26 103 -8 38 20 117 90 111 99 -8 13 -14 11 -63 -21z"></path>
</g>
</svg>