 <svg version="1.0" xmlns="http://www.w3.org/2000/svg" width="700.000000pt" height="373.000000pt" viewBox="0 0 700.000000 373.000000" preserveAspectRatio="xMidYMid meet">
<metadata>
Created by potrace 1.12, written by Peter Selinger 2001-2015
</metadata>
<g transform="translate(0.000000,373.000000) scale(0.100000,-0.100000)" fill="#000000" stroke="none">
<path d="M6666 3609 c-129 -14 -392 -91 -591 -174 -113 -47 -369 -171 -504
-244 -109 -59 -120 -63 -260 -87 -134 -23 -334 -66 -456 -100 -92 -25 -169
-44 -264 -65 -148 -33 -549 -151 -741 -219 -96 -34 -264 -93 -372 -131 -246
-85 -409 -151 -609 -245 -86 -41 -172 -77 -190 -80 l-34 -5 45 40 c25 23 72
55 105 73 33 17 92 52 130 78 66 45 137 89 320 203 44 27 107 63 139 79 33 17
94 52 136 78 42 26 204 111 360 189 157 78 307 153 335 168 27 14 146 72 265
128 219 104 341 172 348 193 5 17 -41 32 -100 32 -98 0 -343 -91 -773 -288
-202 -92 -471 -245 -695 -395 -58 -39 -134 -88 -170 -110 -83 -50 -264 -187
-354 -266 -38 -33 -72 -58 -76 -56 -5 3 -2 29 5 58 8 28 26 117 41 197 33 183
31 343 -7 455 -31 93 -114 181 -204 214 -129 48 -259 54 -391 16 -146 -42
-417 -186 -604 -321 -255 -183 -634 -568 -796 -809 -66 -98 -154 -253 -187
-329 -29 -67 -31 -78 -31 -201 -1 -109 2 -135 17 -158 28 -43 39 -34 30 26
-12 78 -7 179 12 244 40 139 214 422 378 613 281 328 465 485 817 694 270 161
374 198 565 200 105 1 113 0 176 -31 128 -63 199 -178 199 -322 0 -91 -19
-267 -41 -391 -12 -63 -25 -138 -30 -166 -15 -78 -95 -168 -223 -247 -113 -71
-429 -255 -581 -339 -154 -85 -514 -321 -669 -438 -76 -58 -150 -114 -165
-124 -14 -11 44 48 129 131 152 147 270 279 270 301 0 13 -25 20 -80 24 l-34
3 60 65 c120 130 130 150 79 150 -27 0 -192 -85 -241 -124 -19 -15 -34 -34
-34 -42 0 -31 32 -26 93 17 l62 43 -62 -69 c-35 -38 -63 -75 -63 -82 0 -17 33
-33 69 -33 17 0 31 -5 31 -12 0 -31 -719 -710 -1010 -954 -139 -117 -156 -144
-89 -144 23 0 57 26 177 137 307 286 402 365 564 469 56 37 193 131 303 209
416 295 591 408 759 491 l91 45 -51 -48 c-27 -26 -105 -99 -171 -161 -127
-117 -227 -239 -271 -329 -30 -61 -25 -93 20 -126 23 -17 31 -19 53 -9 l27 12
-26 31 c-14 17 -26 36 -26 42 0 25 52 121 91 171 91 114 351 359 484 456 33
24 88 67 121 95 34 29 82 62 108 74 l46 23 39 -23 c40 -22 40 -22 159 -6 100
14 151 28 308 85 104 39 227 85 274 105 265 109 311 127 323 127 16 -1 -42
-36 -198 -122 -71 -39 -188 -107 -260 -152 -71 -45 -170 -106 -220 -136 -166
-99 -400 -258 -454 -309 -46 -43 -52 -52 -41 -66 8 -10 30 -15 69 -15 58 0
105 15 335 104 65 25 133 46 149 46 l31 0 -32 -33 c-17 -18 -58 -48 -89 -67
-32 -19 -80 -51 -108 -71 -27 -20 -79 -53 -115 -73 -36 -20 -123 -76 -195
-126 -71 -49 -175 -119 -230 -156 -55 -37 -145 -101 -201 -143 -56 -42 -137
-102 -182 -134 -115 -83 -202 -177 -202 -216 0 -44 27 -55 123 -48 97 6 177
43 412 186 214 131 323 195 365 216 32 16 208 114 777 436 106 60 259 145 340
188 82 43 271 146 422 230 151 83 276 149 279 147 2 -2 -6 -34 -17 -71 -16
-52 -21 -94 -21 -189 0 -112 2 -125 28 -181 33 -68 134 -198 182 -233 33 -25
130 -62 161 -62 41 0 24 19 -45 54 -86 42 -161 117 -200 200 -37 79 -60 231
-47 316 21 133 65 220 136 264 26 17 121 65 212 108 221 103 949 479 1088 561
61 35 148 88 195 117 47 28 148 90 225 137 496 303 624 393 661 465 25 49 14
58 -68 57 -40 -1 -108 -5 -152 -10z m144 -49 c0 -9 -135 -112 -245 -187 -123
-83 -168 -103 -251 -113 -137 -16 -558 -70 -589 -76 -30 -6 -30 -5 9 21 75 53
339 167 576 250 214 74 500 135 500 105z m-2170 -123 c-60 -29 -585 -289 -675
-335 -22 -11 -92 -46 -155 -77 -63 -32 -162 -86 -220 -120 -58 -34 -168 -98
-245 -140 -77 -43 -219 -128 -315 -190 -325 -207 -298 -191 -270 -161 36 40
231 186 405 303 348 236 1013 578 1360 699 170 60 210 67 115 21z m1695 -206
c-6 -5 -55 -32 -110 -61 -55 -29 -129 -71 -165 -93 -36 -22 -134 -80 -219
-129 -85 -50 -170 -100 -190 -112 -38 -24 -271 -143 -511 -262 -80 -39 -253
-128 -384 -198 -132 -70 -244 -125 -249 -123 -15 5 251 285 335 353 40 32 104
85 141 116 59 49 211 153 484 332 99 64 152 76 743 165 69 11 127 20 130 20 2
1 0 -3 -5 -8z m-960 -171 c-4 -6 -34 -24 -67 -41 -126 -64 -366 -240 -535
-393 -172 -155 -243 -232 -342 -371 -38 -53 -70 -87 -96 -101 -22 -12 -141
-74 -265 -139 -124 -65 -304 -162 -400 -215 -96 -54 -256 -141 -355 -195 -184
-100 -227 -124 -540 -307 -99 -58 -217 -127 -262 -152 -81 -45 -201 -119 -255
-157 -92 -64 -400 -229 -485 -259 -52 -19 -66 -20 -78 -10 -14 12 -13 16 12
42 40 42 258 220 334 273 35 24 116 79 179 122 63 43 153 105 200 138 47 34
101 70 120 81 238 141 560 364 560 390 0 38 -84 44 -205 14 -81 -19 -108 -28
-289 -94 -94 -35 -98 -36 -84 -14 22 34 458 309 828 523 74 43 165 97 202 119
37 23 85 52 108 66 46 28 51 47 14 56 -67 17 -191 -19 -595 -175 -239 -91
-392 -141 -435 -141 -18 0 -24 6 -24 21 0 34 51 74 125 99 39 13 108 41 155
62 47 22 132 59 190 83 58 23 128 53 155 65 76 33 768 265 955 320 91 26 237
67 325 90 88 23 213 57 277 76 64 18 177 45 250 59 73 14 174 37 223 50 106
28 108 28 100 15z m-2791 -872 c-9 -68 -12 -72 -30 -57 -18 15 -11 54 13 82
23 24 24 22 17 -25z"></path>
<path d="M5036 912 c-67 -133 -99 -182 -111 -170 -4 4 -15 48 -26 98 -25 129
-48 151 -86 83 -52 -93 -78 -218 -50 -242 16 -12 27 -5 27 18 0 28 47 117 53
101 3 -8 12 -36 22 -63 29 -81 86 -101 128 -44 54 71 137 264 137 317 0 60
-28 30 -94 -98z"></path>
<path d="M4550 930 c-30 -11 -61 -27 -70 -36 -13 -14 -13 -17 5 -30 12 -9 30
-12 47 -8 16 3 28 1 28 -4 0 -5 -22 -43 -48 -83 -50 -76 -110 -136 -122 -122
-16 20 -82 214 -76 228 3 10 19 15 43 16 47 0 105 20 111 37 3 9 -18 12 -83
12 -102 0 -214 -23 -250 -52 -23 -18 -25 -23 -12 -35 11 -11 25 -12 65 -5 l51
9 38 -76 c47 -95 51 -161 13 -230 -35 -62 -72 -88 -105 -73 -15 7 -25 20 -25
32 0 43 -31 77 -43 47 -8 -22 12 -109 30 -129 40 -44 117 -10 189 83 25 32 53
59 62 59 15 0 241 68 300 91 12 5 22 13 22 18 0 13 -57 22 -101 15 -21 -4 -49
-4 -63 0 -26 6 -26 6 36 93 46 65 61 95 62 122 1 31 -2 36 -24 38 -14 2 -50
-6 -80 -17z"></path>
<path d="M3779 898 c-80 -42 -120 -92 -126 -155 -6 -56 14 -88 78 -129 l39
-24 -15 -38 c-8 -20 -47 -67 -86 -104 -67 -64 -83 -95 -52 -105 34 -12 213
184 213 233 0 27 -35 65 -91 100 -25 15 -33 26 -31 44 6 55 106 142 179 156
41 8 52 23 28 41 -30 21 -69 15 -136 -19z"></path>
<path d="M3440 790 c-69 -39 -131 -77 -139 -85 -25 -25 -2 -38 55 -32 63 6 62
8 33 -83 -28 -87 -32 -241 -7 -266 16 -17 18 -16 28 10 5 15 10 49 10 75 0
110 58 269 134 365 46 60 52 79 25 84 -8 1 -70 -29 -139 -68z"></path>
<path d="M3028 614 c-16 -8 -28 -23 -28 -34 0 -28 -17 -25 -24 5 -9 37 -34 31
-45 -12 -42 -160 -63 -399 -39 -443 7 -14 22 -26 32 -28 17 -4 18 1 12 56 -5
43 -1 99 14 188 11 69 23 130 26 135 8 13 36 11 114 -7 38 -8 80 -24 92 -33
22 -18 22 -19 4 -65 -11 -29 -46 -76 -93 -126 -78 -83 -87 -110 -38 -110 37 0
124 86 163 161 58 113 38 184 -59 208 -24 6 -57 15 -74 19 l-30 8 37 25 c42
27 47 43 19 59 -27 14 -51 12 -83 -6z"></path>
<path d="M3907 513 c-16 -15 -5 -41 22 -52 23 -10 35 -9 65 3 38 16 47 40 20
50 -21 8 -99 8 -107 -1z"></path>
</g>
</svg>