 <svg version="1.0" xmlns="http://www.w3.org/2000/svg" width="700.000000pt" height="279.000000pt" viewBox="0 0 700.000000 279.000000" preserveAspectRatio="xMidYMid meet">
<metadata>
Created by potrace 1.12, written by Peter Selinger 2001-2015
</metadata>
<g transform="translate(0.000000,279.000000) scale(0.100000,-0.100000)" fill="#000000" stroke="none">
<path d="M4545 2735 c-252 -65 -594 -233 -885 -432 -182 -126 -385 -305 -450
-399 -25 -35 -53 -53 -192 -123 -156 -78 -247 -108 -276 -92 -10 5 9 22 60 54
40 25 84 57 97 71 39 42 19 50 -124 54 l-125 4 -27 -30 c-31 -33 -123 -66
-170 -60 -22 2 -29 9 -31 31 -3 21 -9 27 -27 27 -22 0 -24 3 -19 29 13 61 -20
50 -134 -48 -69 -59 -87 -87 -71 -107 14 -18 55 -11 112 18 38 19 38 19 64 -2
38 -30 84 -25 247 26 195 60 217 56 106 -18 l-85 -57 -185 -11 c-102 -5 -215
-13 -251 -16 -43 -4 -69 -2 -73 5 -13 20 192 461 226 488 7 5 33 13 58 17 25
4 86 20 135 36 164 55 235 111 235 189 0 26 -9 43 -44 77 -51 52 -75 55 -148
18 -68 -34 -135 -99 -217 -209 -37 -49 -75 -96 -83 -103 -18 -15 -360 -64
-642 -92 -338 -34 -653 -23 -753 26 -56 27 -70 27 -59 -1 8 -22 65 -44 160
-62 166 -32 738 0 1116 62 80 13 148 21 152 17 4 -4 -14 -54 -41 -112 -27 -58
-72 -157 -100 -220 -29 -63 -60 -122 -71 -131 -13 -12 -50 -18 -127 -23 -878
-56 -1610 -140 -1788 -207 -96 -36 -108 -104 -43 -238 44 -88 144 -188 283
-280 121 -80 350 -198 450 -231 55 -18 193 -39 263 -40 12 0 22 -3 22 -7 0 -5
-55 -47 -123 -95 -161 -115 -436 -334 -444 -354 -3 -9 1 -23 10 -31 30 -30
111 23 525 349 141 110 214 158 341 223 75 38 131 76 182 123 41 37 99 88 129
113 70 59 416 284 580 376 69 38 184 105 255 147 72 42 171 96 221 121 l92 44
448 11 c496 11 1047 13 1082 4 58 -16 4 -61 -216 -180 -332 -179 -712 -420
-977 -619 -156 -117 -319 -260 -470 -410 -198 -197 -288 -330 -265 -389 13
-35 33 -41 80 -27 82 24 198 114 688 533 137 117 316 268 398 334 380 310 557
455 659 542 122 103 200 152 308 189 65 23 80 25 174 18 57 -4 103 -10 103
-14 0 -3 -114 -59 -254 -124 -287 -134 -346 -167 -346 -196 0 -60 77 -50 735
93 231 51 497 83 470 57 -6 -5 -91 -43 -190 -84 -695 -290 -1871 -867 -2424
-1190 -122 -71 -161 -102 -161 -128 0 -40 18 -32 350 159 598 345 1351 698
1923 903 60 22 112 39 115 38 4 0 -60 -33 -143 -73 -462 -224 -988 -537 -957
-568 13 -13 25 -6 197 106 380 245 1317 676 1614 741 133 29 211 39 211 26 0
-5 -50 -35 -110 -66 -141 -72 -180 -105 -180 -152 0 -47 33 -76 159 -142 55
-29 107 -61 117 -72 16 -18 16 -20 -2 -40 -42 -47 -305 -149 -446 -173 -86
-15 -94 -19 -83 -37 14 -21 160 -5 268 30 140 46 261 99 291 126 32 30 35 90
7 127 -11 13 -60 46 -111 73 -50 28 -106 62 -123 77 l-32 27 25 25 c14 14 93
60 175 103 142 74 150 80 150 108 0 26 -5 32 -42 45 -24 8 -43 17 -43 21 0 3
64 33 143 65 106 43 158 59 203 62 89 6 396 -16 484 -35 97 -20 102 -20 107
-6 14 38 -127 71 -345 80 -84 3 -155 10 -158 14 -2 5 19 20 48 35 72 36 91 53
77 71 -6 7 -17 13 -24 13 -7 0 -68 -28 -136 -61 l-124 -61 -475 11 c-531 13
-672 20 -664 33 3 5 51 32 107 60 143 71 157 82 157 123 0 44 -20 50 -140 42
-98 -6 -302 -68 -538 -163 -97 -39 -146 -54 -181 -54 -48 0 -48 0 -66 45 -9
25 -27 53 -40 61 -14 9 -71 20 -136 27 -107 11 -113 13 -119 36 -4 18 -15 27
-39 34 -18 4 -31 10 -28 13 3 3 103 54 223 113 421 207 622 320 867 484 184
123 207 142 207 173 0 29 -32 40 -88 29 -124 -23 -652 -266 -914 -422 -224
-132 -362 -231 -488 -348 -82 -77 -115 -100 -124 -86 -3 4 17 27 44 50 50 42
60 63 39 77 -6 4 -47 -12 -91 -35 -96 -50 -125 -53 -130 -13 -5 44 -44 39
-237 -28 -96 -33 -176 -59 -178 -57 -8 8 30 29 287 157 507 254 1039 537 1137
607 74 51 89 86 53 115 -30 25 -94 23 -205 -7z m145 -54 c0 -12 -126 -92 -294
-185 -153 -86 -941 -492 -1031 -531 -49 -22 -55 -23 -43 -7 21 30 135 129 240
208 311 236 635 411 928 500 75 23 200 32 200 15z m639 -37 c-17 -21 -255
-178 -413 -272 -188 -113 -778 -404 -886 -437 l-25 -7 25 27 c36 39 225 174
370 265 220 136 561 305 810 399 119 46 140 50 119 25z m-2628 -212 c55 -45
14 -119 -96 -173 -64 -31 -231 -77 -242 -66 -3 4 -1 18 5 32 17 37 161 184
202 205 45 25 101 25 131 2z m889 -546 c0 -14 9 -31 21 -39 17 -13 28 -13 68
-2 46 12 48 11 79 -16 37 -33 46 -34 167 -14 120 20 152 19 182 -5 23 -18 41
-20 170 -20 80 0 153 -5 164 -10 21 -12 26 -58 7 -64 -7 -3 -343 -7 -747 -10
-624 -5 -732 -4 -722 8 6 8 50 33 96 57 81 41 90 43 177 44 86 1 102 5 208 48
63 25 118 47 123 47 4 0 7 -11 7 -24z m1745 -22 c-11 -8 -91 -51 -177 -95
l-157 -79 -98 1 c-54 1 -111 5 -128 9 l-30 7 50 22 c129 59 446 150 520 150
38 0 39 0 20 -15z m285 -235 c234 -6 448 -14 475 -18 l50 -8 -75 -35 c-122
-57 -408 -161 -685 -249 -143 -45 -303 -99 -355 -120 -52 -22 -99 -39 -105
-39 -18 1 55 36 220 105 367 153 435 186 441 212 4 16 0 31 -12 45 -18 19 -26
20 -134 15 -131 -7 -264 -29 -537 -92 -234 -54 -415 -87 -451 -83 -29 4 74 57
385 199 179 81 207 89 293 83 36 -2 256 -9 490 -15z m-2905 2 c-17 -16 -368
-221 -379 -221 -14 0 -5 7 114 91 150 105 210 139 244 139 18 0 26 -4 21 -9z
m-207 -10 c10 -6 -19 -32 -100 -93 -238 -177 -576 -413 -583 -406 -3 2 2 15 9
28 7 14 59 113 116 220 140 267 117 240 203 241 39 1 99 5 132 9 86 10 208 11
223 1z m-510 -33 c5 -25 -141 -305 -230 -441 l-84 -128 -120 -80 c-65 -44
-174 -114 -241 -155 -111 -69 -130 -77 -195 -85 -92 -11 -253 3 -333 31 -33
11 -109 45 -170 74 -264 130 -495 325 -539 454 -21 59 -7 89 55 120 130 64
735 144 1539 202 156 12 287 23 289 26 9 8 26 -2 29 -18z m2192 -152 c-8 -7
-229 -191 -490 -409 -261 -217 -569 -475 -685 -572 -327 -276 -473 -381 -497
-357 -38 38 227 347 482 561 258 216 425 334 783 555 283 174 458 270 407 222z"></path>
<path d="M5915 650 c-35 -50 -100 -110 -120 -110 -8 0 -21 15 -29 34 -8 19
-26 42 -41 52 -24 16 -35 16 -94 6 -102 -17 -254 -102 -229 -127 4 -4 19 0 35
9 81 45 134 66 191 76 55 10 67 9 88 -5 21 -14 24 -21 19 -48 -12 -57 -38
-102 -60 -102 -13 0 -21 8 -23 23 -5 36 -32 27 -32 -11 0 -23 8 -41 25 -57 29
-27 36 -25 124 40 30 22 62 40 72 40 10 0 31 -16 46 -37 32 -42 92 -72 144
-73 61 0 83 45 27 54 -18 3 -50 8 -72 11 -43 7 -82 40 -92 79 -5 20 4 42 40
98 51 80 54 88 27 88 -10 0 -30 -18 -46 -40z"></path>
</g>
</svg>