<?xml version="1.0" standalone="no"?>
<!DOCTYPE svg PUBLIC "-//W3C//DTD SVG 20010904//EN"
 "http://www.w3.org/TR/2001/REC-SVG-20010904/DTD/svg10.dtd">
<svg version="1.0" xmlns="http://www.w3.org/2000/svg"
 width="2075.000000pt" height="1293.000000pt" viewBox="0 0 2075.000000 1293.000000"
 preserveAspectRatio="xMidYMid meet">
<metadata>
Created by potrace 1.15, written by Peter Selinger 2001-2017
</metadata>
<g transform="translate(0.000000,1293.000000) scale(0.100000,-0.100000)"
fill="#000000" stroke="none">
<path d="M14980 12433 c-128 -8 -422 -38 -595 -62 -207 -29 -998 -180 -1205
-231 -19 -5 -64 -15 -100 -23 -159 -35 -958 -236 -1051 -265 -19 -6 -79 -23
-134 -38 -95 -25 -241 -67 -350 -99 -50 -14 -240 -70 -345 -101 -30 -9 -80
-24 -110 -34 -30 -9 -86 -27 -125 -39 -38 -11 -131 -40 -205 -64 -74 -24 -209
-68 -300 -97 -91 -29 -201 -66 -245 -83 -44 -16 -100 -35 -125 -42 -59 -16
-184 -59 -293 -101 -48 -19 -93 -34 -99 -34 -13 0 -237 -84 -270 -101 -10 -5
-23 -9 -30 -9 -7 0 -87 -29 -177 -65 -90 -36 -172 -65 -182 -65 -11 0 -19 -4
-19 -10 0 -5 -11 -10 -25 -10 -14 0 -25 -4 -25 -10 0 -5 -8 -10 -19 -10 -10 0
-124 -43 -252 -96 -129 -52 -297 -120 -374 -151 -77 -31 -141 -60 -143 -65 -2
-4 -12 -8 -22 -8 -10 0 -22 -4 -25 -10 -3 -5 -15 -10 -26 -10 -10 0 -19 -4
-19 -10 0 -5 -8 -10 -18 -10 -10 0 -22 -4 -28 -9 -5 -5 -52 -26 -104 -47 -52
-21 -110 -46 -128 -56 -18 -10 -39 -18 -47 -18 -8 0 -15 -4 -15 -10 0 -5 -5
-10 -12 -10 -11 0 -91 -35 -161 -71 -22 -10 -45 -19 -53 -19 -8 0 -14 -4 -14
-9 0 -5 -10 -13 -22 -17 -13 -3 -83 -35 -155 -70 -73 -35 -137 -64 -142 -64
-5 0 -11 -3 -13 -8 -1 -4 -56 -34 -121 -66 -64 -32 -119 -62 -122 -66 -2 -3
-22 -12 -44 -20 -23 -7 -41 -16 -41 -20 0 -4 -19 -15 -42 -26 -24 -10 -45 -21
-48 -25 -3 -3 -23 -14 -45 -25 -22 -10 -42 -21 -45 -25 -3 -3 -23 -14 -45 -25
-22 -10 -42 -21 -45 -24 -5 -7 -30 -21 -100 -57 -19 -10 -37 -20 -40 -23 -12
-12 -112 -70 -121 -70 -5 0 -9 -4 -9 -9 0 -5 -13 -14 -30 -20 -16 -5 -30 -14
-30 -18 0 -5 -12 -14 -27 -20 -35 -14 -86 -45 -94 -56 -7 -10 -42 -31 -76 -46
-13 -6 -23 -15 -23 -21 0 -5 -5 -10 -10 -10 -12 0 -73 -41 -78 -52 -2 -5 -8
-8 -13 -8 -6 0 -38 -21 -73 -47 -35 -27 -74 -55 -86 -63 -12 -8 -32 -23 -43
-33 -12 -10 -52 -42 -89 -70 -38 -29 -68 -55 -68 -59 0 -5 -5 -8 -10 -8 -11 0
-45 -30 -196 -174 -102 -97 -150 -134 -206 -157 -16 -6 -28 -14 -28 -18 0 -4
-16 -13 -35 -21 -19 -8 -35 -17 -35 -21 0 -3 -14 -12 -30 -19 -16 -7 -30 -16
-30 -21 0 -5 -7 -9 -15 -9 -7 0 -18 -6 -22 -13 -4 -8 -48 -28 -98 -46 -84 -30
-115 -43 -190 -77 -16 -7 -84 -32 -150 -56 -66 -23 -122 -45 -125 -48 -3 -4
-66 -29 -140 -55 -74 -27 -137 -51 -140 -54 -5 -7 -26 -15 -175 -68 -55 -20
-102 -40 -105 -43 -6 -8 -203 -80 -218 -80 -7 0 -12 -4 -12 -10 0 -5 -11 -10
-24 -10 -13 0 -26 -4 -28 -8 -3 -8 -162 -69 -205 -79 -13 -3 -23 -9 -23 -13 0
-4 -10 -10 -22 -13 -26 -6 -146 -51 -198 -74 -69 -31 -96 -41 -160 -64 -36
-12 -69 -25 -75 -29 -5 -3 -29 -12 -51 -19 -23 -8 -57 -26 -75 -42 -32 -28
-34 -32 -34 -99 0 -68 1 -71 35 -100 33 -29 39 -31 100 -27 47 3 109 20 225
61 216 78 578 203 811 282 105 35 200 67 210 70 10 4 -62 -73 -161 -172 -208
-208 -515 -529 -515 -539 0 -1 -21 -25 -48 -53 -45 -48 -122 -134 -193 -217
-19 -21 -41 -47 -49 -55 -35 -38 -121 -139 -166 -195 -27 -33 -53 -64 -59 -70
-6 -5 -31 -35 -56 -65 -49 -61 -66 -81 -104 -125 -14 -16 -49 -60 -77 -97 -29
-38 -56 -68 -60 -68 -4 0 -8 -6 -8 -14 0 -8 -7 -16 -15 -20 -8 -3 -15 -12 -15
-21 0 -8 -4 -15 -9 -15 -5 0 -37 -37 -72 -82 -74 -97 -73 -96 -100 -128 -11
-14 -30 -38 -42 -54 -12 -15 -30 -36 -39 -44 -10 -9 -18 -20 -18 -24 0 -5 -8
-16 -17 -26 -33 -32 -643 -849 -643 -859 0 -6 -7 -13 -15 -17 -8 -3 -15 -12
-15 -20 0 -7 -7 -16 -15 -20 -8 -3 -15 -12 -15 -20 0 -7 -7 -16 -15 -20 -8 -3
-15 -12 -15 -21 0 -8 -5 -15 -10 -15 -6 0 -15 -11 -20 -25 -5 -14 -14 -25 -20
-25 -5 0 -10 -5 -10 -11 0 -6 -31 -53 -70 -105 -38 -52 -70 -98 -70 -103 0 -5
-7 -11 -15 -15 -8 -3 -15 -12 -15 -20 0 -7 -7 -16 -15 -20 -8 -3 -15 -10 -15
-15 0 -8 -93 -143 -147 -216 -5 -5 -21 -30 -38 -55 -16 -25 -32 -47 -35 -50
-10 -10 -105 -151 -118 -175 -7 -14 -17 -25 -23 -25 -5 0 -9 -5 -9 -12 0 -6
-11 -26 -25 -44 -14 -18 -25 -37 -25 -43 0 -6 -5 -11 -10 -11 -6 0 -15 -11
-20 -25 -5 -14 -14 -25 -20 -25 -5 0 -10 -5 -10 -12 0 -6 -11 -26 -25 -44 -14
-18 -25 -37 -25 -43 0 -6 -5 -11 -10 -11 -6 0 -14 -8 -18 -18 -10 -25 -125
-196 -134 -200 -5 -2 -8 -8 -8 -14 0 -6 -11 -26 -25 -44 -14 -18 -25 -38 -25
-44 0 -6 -7 -13 -15 -16 -8 -4 -15 -11 -15 -17 0 -5 -11 -25 -25 -43 -14 -18
-25 -38 -25 -44 0 -6 -7 -13 -15 -16 -8 -4 -15 -11 -15 -17 0 -5 -11 -25 -25
-43 -14 -18 -25 -35 -25 -39 0 -3 -8 -18 -18 -33 -63 -92 -72 -110 -72 -146 0
-56 52 -106 110 -106 35 0 47 6 73 34 40 42 48 53 67 91 8 17 21 34 27 38 7 4
13 13 13 18 0 6 11 25 25 43 14 18 25 38 25 43 0 6 7 13 15 17 8 3 15 10 15
15 0 5 42 72 94 150 51 77 96 147 99 156 4 8 11 15 17 15 5 0 10 5 10 12 0 6
11 26 25 44 14 18 25 37 25 43 0 6 5 11 10 11 6 0 15 11 20 25 5 14 14 25 20
25 5 0 10 5 10 12 0 6 18 35 40 64 22 29 40 58 40 64 0 5 4 10 9 10 5 0 13 9
16 20 3 11 12 26 18 32 7 7 25 33 42 58 16 25 32 47 35 50 3 3 19 25 35 50 17
25 33 47 38 48 4 2 7 8 7 13 0 6 18 34 40 63 22 29 40 58 40 63 0 6 7 13 15
17 8 3 15 12 15 21 0 8 5 15 10 15 6 0 15 11 20 25 5 14 14 25 20 25 5 0 10 5
10 11 0 6 32 53 70 105 39 52 70 98 70 103 0 5 7 11 15 15 8 3 15 12 15 21 0
8 5 15 10 15 6 0 15 11 20 25 5 14 14 25 20 25 5 0 10 5 10 11 0 6 79 116 175
245 96 129 175 238 175 243 0 5 7 11 15 15 8 3 15 12 15 20 0 7 7 16 15 20 8
3 15 12 15 20 0 7 7 16 15 20 8 3 15 12 15 21 0 8 5 15 10 15 6 0 14 8 17 18
4 9 12 22 18 27 7 6 83 105 170 220 87 116 165 217 174 227 9 9 26 29 38 45
12 15 31 39 42 53 24 29 16 19 110 140 41 52 80 100 87 106 8 6 14 16 14 23 0
6 3 11 8 11 4 0 34 34 67 77 33 42 72 90 88 107 39 44 47 54 91 111 22 27 47
57 56 67 9 9 35 38 56 65 21 26 47 55 57 64 9 9 31 34 48 55 30 39 111 131
159 184 14 14 54 60 90 100 36 40 76 85 90 100 14 15 65 71 115 126 108 120
562 573 664 664 40 36 86 76 101 90 63 58 108 97 150 130 25 19 47 37 50 40 3
3 25 12 50 19 25 7 133 41 240 76 620 198 1335 412 1870 560 47 13 126 35 175
48 130 37 229 64 315 86 41 11 109 28 150 39 107 28 289 75 423 108 98 24 175
43 235 59 31 8 102 24 157 35 55 12 125 27 155 35 104 26 145 36 215 49 125
25 269 55 335 71 36 8 117 24 180 35 63 11 144 26 180 34 36 8 171 30 300 49
213 32 294 43 585 77 163 19 563 37 500 23 -11 -2 -34 -11 -52 -19 -17 -8 -36
-14 -42 -14 -6 0 -11 -4 -11 -8 0 -4 -26 -17 -57 -27 -32 -11 -64 -25 -71 -32
-7 -7 -20 -13 -29 -13 -8 0 -37 -11 -65 -25 -27 -14 -56 -25 -64 -25 -8 0 -14
-4 -14 -10 0 -5 -7 -10 -15 -10 -15 0 -86 -31 -95 -41 -3 -3 -23 -12 -45 -19
-22 -7 -56 -21 -75 -31 -19 -11 -40 -19 -47 -19 -7 0 -13 -4 -13 -10 0 -5 -12
-13 -27 -16 -25 -6 -64 -23 -249 -110 -28 -13 -56 -24 -62 -24 -7 0 -12 -4
-12 -10 0 -5 -5 -10 -10 -10 -11 0 -127 -51 -172 -75 -14 -8 -33 -15 -42 -15
-9 0 -16 -4 -16 -9 0 -5 -10 -13 -22 -16 -13 -4 -46 -18 -75 -31 -28 -13 -57
-24 -62 -24 -6 0 -11 -4 -11 -9 0 -5 -14 -12 -30 -16 -16 -4 -30 -10 -30 -15
0 -5 -14 -11 -30 -15 -16 -4 -30 -11 -30 -16 0 -5 -5 -9 -10 -9 -18 0 -270
-119 -280 -132 -3 -3 -18 -10 -33 -13 -15 -4 -27 -11 -27 -15 0 -5 -13 -11
-30 -15 -16 -4 -30 -11 -30 -16 0 -5 -12 -12 -27 -15 -15 -4 -34 -13 -41 -21
-7 -7 -22 -13 -32 -13 -10 0 -21 -4 -24 -9 -3 -5 -45 -28 -93 -51 -49 -24 -89
-47 -91 -52 -2 -4 -12 -8 -22 -8 -9 0 -23 -7 -30 -15 -7 -8 -21 -15 -31 -15
-10 0 -20 -4 -24 -9 -3 -6 -27 -20 -53 -33 -26 -13 -53 -29 -60 -35 -7 -7 -22
-13 -33 -13 -10 0 -19 -4 -19 -9 0 -5 -10 -13 -22 -17 -13 -4 -46 -21 -74 -39
-28 -18 -60 -36 -72 -39 -12 -4 -22 -12 -22 -17 0 -5 -9 -9 -20 -9 -11 0 -20
-4 -20 -9 0 -5 -10 -13 -22 -17 -13 -4 -30 -15 -39 -25 -9 -11 -23 -19 -31
-19 -9 0 -21 -7 -28 -15 -7 -8 -18 -15 -25 -15 -6 0 -20 -9 -29 -19 -10 -11
-28 -22 -42 -25 -13 -4 -24 -11 -24 -16 0 -6 -7 -10 -15 -10 -8 0 -20 -9 -27
-20 -7 -11 -19 -20 -26 -20 -7 0 -19 -6 -26 -12 -7 -7 -28 -24 -46 -38 -18
-14 -45 -36 -60 -50 -16 -14 -36 -32 -46 -41 -110 -93 -147 -244 -81 -321 28
-33 54 -43 130 -52 83 -11 189 9 382 69 94 30 189 60 213 67 23 7 42 16 42 20
0 5 10 8 23 8 13 0 27 4 33 9 5 5 47 21 94 36 47 16 94 33 105 40 11 6 40 18
65 26 25 7 47 16 50 19 3 4 43 20 90 37 144 52 204 76 225 88 11 7 41 19 68
26 26 7 47 16 47 20 0 3 27 14 60 24 33 10 60 22 60 26 0 4 15 10 33 14 17 4
52 17 77 29 25 12 65 28 90 36 25 8 47 17 50 21 3 3 30 14 60 24 30 10 57 21
60 24 3 3 32 15 65 26 33 10 62 22 65 25 7 7 69 31 98 37 12 3 22 9 22 14 0 5
9 9 20 9 11 0 28 4 38 10 21 11 130 55 192 77 25 8 50 19 55 23 6 4 35 15 65
25 30 10 57 21 60 25 3 4 32 15 65 25 33 10 62 22 65 25 3 4 43 20 90 35 47
15 94 33 105 40 11 6 40 18 65 26 25 7 47 16 50 19 3 3 43 19 90 34 47 16 90
32 95 36 6 3 62 24 125 45 63 21 120 41 125 45 21 15 638 207 710 221 28 5 59
12 70 15 18 5 17 4 -3 -12 -13 -11 -47 -37 -75 -60 -29 -23 -97 -72 -152 -109
-55 -37 -101 -72 -103 -77 -2 -4 -11 -8 -19 -8 -9 0 -23 -8 -32 -17 -18 -20
-41 -35 -88 -60 -18 -9 -33 -20 -33 -25 0 -4 -8 -8 -18 -8 -10 0 -24 -9 -32
-20 -8 -11 -22 -20 -32 -20 -10 0 -18 -3 -18 -8 0 -4 -16 -16 -35 -26 -19 -11
-35 -23 -35 -28 0 -4 -9 -8 -20 -8 -11 0 -20 -4 -20 -8 0 -5 -18 -17 -40 -27
-22 -10 -40 -22 -40 -27 0 -4 -9 -8 -20 -8 -11 0 -20 -4 -20 -9 0 -5 -15 -16
-32 -25 -18 -9 -46 -25 -63 -36 -16 -10 -41 -25 -55 -33 -52 -28 -75 -42 -80
-48 -3 -3 -22 -14 -42 -24 -21 -9 -38 -21 -38 -26 0 -5 -7 -9 -16 -9 -8 0 -22
-7 -30 -15 -9 -8 -24 -15 -35 -15 -10 0 -19 -4 -19 -9 0 -5 -18 -17 -40 -27
-22 -10 -40 -21 -40 -26 0 -4 -9 -8 -20 -8 -11 0 -20 -4 -20 -8 0 -5 -18 -16
-40 -26 -22 -10 -40 -22 -40 -27 0 -5 -9 -9 -19 -9 -11 0 -23 -4 -26 -10 -3
-5 -30 -21 -60 -35 -29 -14 -58 -32 -65 -40 -7 -8 -21 -15 -31 -15 -11 0 -19
-4 -19 -8 0 -5 -18 -16 -39 -25 -22 -10 -55 -29 -76 -42 -20 -14 -42 -25 -50
-25 -8 0 -15 -4 -15 -8 0 -4 -26 -20 -59 -35 -32 -15 -64 -33 -71 -42 -7 -8
-21 -15 -31 -15 -10 0 -21 -4 -24 -10 -3 -5 -30 -21 -60 -35 -29 -14 -58 -32
-65 -40 -7 -8 -21 -15 -31 -15 -10 0 -20 -4 -23 -9 -3 -4 -30 -21 -60 -36 -31
-15 -68 -42 -83 -59 -25 -28 -28 -39 -28 -101 0 -60 3 -74 25 -98 55 -63 118
-73 205 -31 30 14 57 29 60 35 4 5 14 9 24 9 10 0 24 7 31 15 7 8 21 15 31 15
11 0 19 4 19 10 0 5 12 13 27 16 15 4 34 13 41 21 7 7 22 13 33 13 10 0 19 5
19 10 0 6 6 10 13 10 6 0 83 36 171 80 87 44 165 80 172 80 8 0 14 5 14 10 0
6 6 10 13 10 6 0 56 23 110 50 55 28 105 50 113 50 8 0 14 5 14 10 0 6 6 10
13 10 6 0 43 16 80 35 38 19 73 35 78 35 6 0 17 7 25 15 9 8 24 15 35 15 10 0
19 5 19 10 0 6 6 10 13 10 7 0 29 9 50 20 20 11 42 20 48 20 6 0 17 7 25 15 9
8 24 15 35 15 10 0 19 5 19 10 0 6 6 10 13 10 7 0 29 9 50 20 20 11 42 20 48
20 6 0 33 11 61 25 27 14 56 25 64 25 8 0 14 5 14 10 0 6 6 10 13 10 7 0 29 9
50 20 20 11 44 20 52 20 8 0 15 5 15 10 0 6 6 10 13 10 7 0 29 9 50 20 20 11
41 20 47 20 11 0 111 43 152 65 14 8 33 15 41 15 9 0 17 4 19 8 3 7 71 36 156
65 17 7 32 15 32 19 0 5 5 8 11 8 5 0 29 9 52 19 24 11 62 26 85 33 23 7 42
16 42 20 0 4 16 10 35 14 19 3 35 9 35 13 0 4 26 15 58 25 31 10 66 25 77 32
11 8 27 14 37 14 10 0 18 3 18 8 0 4 29 16 65 27 36 10 65 22 65 26 0 3 19 11
43 18 23 7 56 19 72 26 17 8 73 30 125 50 192 73 226 87 272 106 26 10 51 19
57 19 6 0 34 10 63 23 29 13 73 30 98 37 25 8 50 17 55 21 6 5 49 20 95 35 47
14 90 29 95 34 6 4 51 19 100 34 50 16 95 31 100 36 6 4 73 26 150 49 77 23
167 53 200 66 50 19 291 89 435 126 19 5 75 20 125 34 49 14 93 25 98 25 18 0
-5 -19 -55 -45 -29 -15 -60 -33 -68 -39 -8 -7 -27 -18 -42 -26 -16 -7 -28 -17
-28 -22 0 -4 -9 -8 -20 -8 -11 0 -20 -4 -20 -8 0 -5 -18 -17 -40 -27 -22 -10
-40 -22 -40 -27 0 -4 -8 -8 -18 -8 -10 0 -24 -9 -32 -20 -8 -11 -22 -20 -32
-20 -9 0 -19 -4 -23 -9 -3 -6 -18 -16 -33 -24 -61 -31 -148 -81 -162 -91 -8
-7 -27 -18 -42 -26 -16 -7 -28 -17 -28 -22 0 -4 -9 -8 -20 -8 -11 0 -20 -4
-20 -8 0 -5 -18 -16 -40 -26 -22 -10 -40 -22 -40 -27 0 -5 -7 -9 -15 -9 -9 0
-28 -8 -43 -18 -37 -24 -61 -39 -99 -58 -18 -9 -33 -20 -33 -25 0 -5 -9 -9
-20 -9 -11 0 -20 -4 -20 -8 0 -5 -18 -16 -40 -26 -22 -10 -40 -22 -40 -27 0
-5 -9 -9 -20 -9 -11 0 -20 -4 -20 -8 0 -5 -17 -16 -37 -25 -50 -22 -107 -57
-111 -68 -2 -5 -12 -9 -23 -9 -10 0 -19 -4 -19 -8 0 -5 -18 -16 -40 -26 -22
-10 -40 -22 -40 -27 0 -5 -9 -9 -19 -9 -11 0 -23 -5 -26 -10 -4 -6 -21 -17
-38 -25 -48 -22 -102 -56 -105 -66 -2 -5 -12 -9 -23 -9 -10 0 -19 -4 -19 -9 0
-5 -12 -14 -27 -20 -25 -9 -59 -28 -148 -82 -16 -10 -45 -26 -62 -35 -18 -9
-33 -20 -33 -25 0 -5 -9 -9 -20 -9 -11 0 -20 -4 -20 -9 0 -5 -12 -14 -27 -20
-39 -15 -117 -62 -121 -72 -2 -5 -12 -9 -23 -9 -10 0 -19 -4 -19 -8 0 -5 -18
-16 -40 -26 -22 -10 -40 -22 -40 -27 0 -5 -9 -9 -20 -9 -11 0 -20 -3 -20 -7 0
-5 -34 -26 -75 -47 -41 -22 -75 -43 -75 -48 0 -4 -7 -8 -15 -8 -9 0 -21 -5
-28 -10 -29 -25 -89 -60 -101 -60 -8 0 -20 -7 -27 -16 -7 -9 -22 -20 -34 -25
-11 -5 -38 -20 -60 -33 -22 -14 -55 -33 -72 -42 -18 -9 -33 -20 -33 -25 0 -5
-7 -9 -15 -9 -9 0 -28 -8 -43 -18 -37 -24 -61 -39 -99 -58 -18 -9 -33 -20 -33
-25 0 -5 -8 -9 -18 -9 -10 0 -24 -9 -32 -20 -8 -11 -22 -20 -32 -20 -9 0 -20
-5 -23 -10 -4 -6 -21 -17 -38 -25 -48 -22 -102 -56 -105 -66 -2 -5 -12 -9 -23
-9 -10 0 -19 -4 -19 -9 0 -5 -15 -16 -32 -25 -18 -9 -51 -28 -73 -41 -22 -14
-55 -32 -72 -41 -18 -9 -33 -20 -33 -25 0 -5 -9 -9 -20 -9 -11 0 -20 -4 -20
-9 0 -5 -15 -16 -32 -25 -18 -9 -51 -28 -73 -41 -22 -14 -55 -32 -72 -41 -18
-9 -33 -20 -33 -25 0 -5 -6 -9 -13 -9 -7 0 -23 -9 -35 -20 -12 -11 -28 -20
-37 -20 -8 0 -15 -4 -15 -8 0 -5 -15 -16 -32 -25 -18 -10 -51 -28 -73 -42 -22
-14 -50 -29 -62 -35 -11 -5 -24 -13 -27 -19 -4 -6 -22 -18 -41 -27 -19 -9 -35
-20 -35 -25 0 -5 -8 -9 -18 -9 -10 0 -24 -9 -32 -20 -8 -11 -22 -20 -32 -20
-10 0 -18 -4 -18 -9 0 -5 -15 -16 -32 -25 -48 -24 -87 -47 -138 -81 -25 -16
-57 -36 -72 -44 -16 -8 -28 -18 -28 -23 0 -4 -6 -8 -13 -8 -7 0 -22 -8 -33
-17 -21 -19 -51 -38 -95 -60 -15 -7 -32 -20 -39 -28 -7 -8 -18 -15 -24 -15 -7
0 -21 -8 -32 -17 -10 -10 -31 -24 -46 -32 -16 -8 -28 -18 -28 -23 0 -4 -6 -8
-13 -8 -7 0 -22 -8 -33 -17 -10 -10 -31 -24 -46 -32 -16 -8 -28 -18 -28 -23 0
-4 -5 -8 -11 -8 -10 0 -388 -251 -412 -274 -7 -6 -24 -17 -39 -25 -16 -8 -28
-18 -28 -23 0 -4 -6 -8 -12 -8 -12 0 -23 -8 -98 -67 -15 -13 -33 -23 -39 -23
-6 0 -11 -4 -11 -8 0 -4 -12 -15 -27 -24 -16 -9 -38 -25 -50 -35 -13 -10 -42
-32 -65 -49 -56 -40 -199 -145 -218 -161 -46 -36 -152 -113 -156 -113 -3 0
-17 -11 -32 -25 -15 -14 -37 -28 -49 -31 -13 -4 -23 -10 -23 -14 0 -4 -10 -10
-22 -13 -29 -7 -269 -92 -311 -111 -70 -30 -96 -39 -192 -73 -55 -19 -104 -39
-109 -44 -6 -5 -19 -9 -31 -9 -12 0 -25 -4 -31 -10 -5 -5 -56 -26 -114 -46
-58 -20 -109 -40 -114 -45 -6 -5 -20 -9 -32 -9 -12 0 -24 -4 -26 -8 -1 -5 -52
-26 -113 -47 -60 -21 -111 -42 -113 -47 -2 -4 -14 -8 -27 -8 -13 0 -26 -4 -29
-9 -3 -5 -44 -21 -91 -37 -47 -15 -85 -32 -85 -36 0 -4 -11 -8 -24 -8 -14 0
-27 -4 -30 -9 -3 -5 -44 -21 -91 -37 -47 -15 -85 -32 -85 -36 0 -4 -9 -8 -20
-8 -12 0 -31 -6 -43 -14 -12 -7 -53 -24 -92 -37 -38 -13 -71 -27 -73 -31 -2
-5 -11 -8 -21 -8 -9 0 -21 -4 -26 -9 -6 -4 -46 -21 -90 -36 -44 -15 -82 -31
-85 -35 -3 -4 -42 -20 -88 -36 -45 -15 -82 -32 -82 -36 0 -4 -11 -8 -24 -8
-14 0 -27 -4 -30 -9 -4 -5 -31 -17 -61 -26 -30 -10 -55 -22 -55 -26 0 -5 -11
-9 -24 -9 -14 0 -27 -4 -30 -9 -4 -5 -31 -17 -61 -26 -30 -10 -55 -22 -55 -26
0 -5 -11 -9 -24 -9 -14 0 -27 -4 -31 -9 -3 -5 -29 -17 -58 -27 -28 -9 -54 -20
-57 -23 -3 -4 -27 -15 -55 -26 -27 -10 -77 -31 -110 -46 -33 -15 -72 -31 -87
-34 -16 -4 -28 -11 -28 -16 0 -5 -6 -9 -14 -9 -13 0 -82 -28 -171 -70 -22 -10
-52 -22 -67 -25 -16 -4 -28 -11 -28 -16 0 -4 -25 -16 -55 -25 -30 -10 -55 -21
-55 -25 0 -5 -25 -16 -55 -25 -30 -10 -55 -21 -55 -25 0 -5 -25 -16 -55 -25
-30 -10 -55 -21 -55 -25 0 -4 -24 -15 -52 -25 -29 -9 -59 -23 -66 -31 -7 -7
-18 -13 -23 -13 -5 0 -56 -22 -113 -50 -57 -27 -109 -50 -115 -50 -6 0 -11 -4
-11 -8 0 -4 -27 -20 -61 -36 -91 -42 -129 -86 -129 -151 0 -67 49 -122 114
-131 37 -6 73 3 223 54 98 33 279 92 403 132 124 40 304 99 400 130 96 31 249
81 340 110 91 29 233 74 315 101 180 58 435 139 797 253 43 14 78 23 78 21 0
-3 -56 -45 -208 -153 -26 -19 -60 -44 -77 -57 -27 -21 -216 -162 -605 -451
-124 -93 -184 -138 -299 -224 -33 -25 -87 -65 -121 -90 -33 -25 -87 -65 -120
-90 -33 -25 -87 -65 -120 -90 -33 -25 -84 -63 -113 -85 -29 -22 -62 -47 -74
-55 -17 -12 -214 -160 -268 -202 -30 -24 -85 -65 -109 -83 -32 -23 -279 -208
-316 -237 -48 -37 -149 -113 -215 -163 -37 -27 -104 -79 -151 -115 -46 -36
-111 -85 -144 -110 -33 -25 -101 -76 -150 -115 -90 -71 -154 -120 -310 -239
-47 -36 -120 -94 -164 -128 -43 -35 -100 -79 -126 -98 -62 -46 -120 -91 -140
-110 -9 -8 -29 -24 -44 -35 -16 -11 -84 -65 -151 -120 -67 -55 -134 -109 -150
-120 -64 -46 -335 -278 -402 -343 -39 -39 -80 -86 -89 -104 -53 -102 23 -250
136 -265 65 -9 222 39 390 119 126 60 499 245 520 258 8 6 71 40 140 76 179
95 239 127 290 157 25 15 72 41 105 57 33 17 78 41 100 54 22 13 51 31 65 38
14 8 43 25 65 38 22 12 69 38 105 57 36 19 79 42 95 52 17 10 46 27 65 38 19
11 70 41 113 67 43 25 82 46 85 46 4 0 61 32 127 71 144 85 176 104 235 137
37 20 241 138 308 177 120 71 168 99 227 130 39 21 94 53 123 71 29 19 54 34
56 34 3 0 40 22 83 48 43 27 108 64 143 84 66 36 252 144 319 186 20 12 54 32
76 44 22 12 49 28 60 35 11 7 27 15 35 19 14 7 99 55 138 79 9 6 53 32 97 58
44 26 87 52 95 57 8 6 84 49 169 97 84 49 170 98 190 110 20 12 79 46 131 74
52 29 114 65 137 80 23 16 44 29 47 29 3 0 32 17 63 37 32 21 83 50 113 66 30
15 73 39 95 52 22 14 47 28 55 32 8 4 40 23 70 42 30 20 80 48 110 64 30 15
64 33 75 40 11 7 58 35 105 63 47 28 110 64 140 81 30 17 73 40 95 53 22 13
57 32 78 43 20 12 37 24 37 29 0 4 8 8 19 8 10 0 24 7 31 15 7 8 17 15 23 15
5 0 33 14 61 32 64 39 104 62 186 106 36 19 83 47 106 62 22 15 65 39 95 54
30 15 70 36 89 48 19 11 60 34 90 51 30 16 69 38 85 47 17 10 50 29 75 42 25
14 61 34 80 45 19 11 67 37 105 57 137 74 195 108 201 117 3 5 14 9 25 9 10 0
19 4 19 8 0 5 17 17 38 26 20 9 69 34 107 56 39 21 84 46 100 54 17 9 37 20
45 24 8 5 29 16 45 24 17 9 71 37 120 64 50 26 164 85 255 132 91 46 169 88
175 93 5 5 17 9 27 9 10 0 18 5 18 10 0 6 5 10 11 10 6 0 74 31 152 69 136 67
192 93 302 140 28 12 59 26 70 31 27 12 125 47 200 71 33 10 87 19 121 19 47
0 91 10 185 44 129 46 170 61 204 75 11 4 58 23 105 40 47 18 99 39 115 46 17
8 57 24 90 36 55 20 119 46 170 69 11 5 43 18 70 30 28 12 64 27 80 35 17 7
46 20 65 28 19 8 51 22 70 30 77 33 117 47 170 57 30 6 98 19 150 30 150 31
1807 330 1890 341 41 5 145 20 230 34 85 13 209 31 275 40 66 9 165 23 220 31
212 31 664 64 875 64 206 0 254 -8 193 -31 -15 -6 -55 -23 -88 -38 -147 -69
-174 -81 -184 -81 -6 0 -11 -4 -11 -10 0 -5 -6 -10 -12 -10 -7 0 -35 -11 -63
-25 -27 -13 -56 -25 -62 -25 -7 0 -13 -4 -13 -10 0 -5 -5 -10 -12 -10 -6 0
-30 -9 -52 -19 -23 -10 -81 -38 -131 -61 -49 -23 -124 -58 -165 -77 -41 -19
-102 -47 -135 -63 -33 -15 -94 -43 -135 -63 -229 -108 -291 -137 -300 -137 -6
0 -10 -4 -10 -10 0 -5 -11 -10 -25 -10 -14 0 -25 -4 -25 -9 0 -4 -21 -16 -47
-26 -27 -10 -52 -22 -58 -26 -5 -5 -17 -9 -27 -9 -10 0 -18 -4 -18 -9 0 -4
-21 -16 -47 -26 -27 -10 -52 -22 -58 -26 -5 -5 -17 -9 -27 -9 -10 0 -18 -4
-18 -9 0 -4 -21 -16 -47 -26 -27 -10 -52 -22 -58 -26 -5 -5 -17 -9 -27 -9 -10
0 -18 -4 -18 -9 0 -4 -34 -21 -75 -37 -41 -16 -75 -32 -75 -36 0 -5 -5 -8 -10
-8 -11 0 -119 -49 -233 -106 -38 -19 -75 -34 -83 -34 -8 0 -14 -4 -14 -9 0 -4
-21 -16 -47 -26 -27 -10 -52 -22 -58 -26 -5 -5 -17 -9 -27 -9 -10 0 -18 -4
-18 -9 0 -4 -21 -16 -47 -26 -27 -10 -52 -22 -58 -26 -5 -5 -17 -9 -27 -9 -10
0 -18 -4 -18 -9 0 -5 -10 -13 -22 -17 -35 -10 -111 -46 -128 -59 -8 -7 -42
-22 -75 -35 -33 -13 -62 -27 -65 -30 -3 -3 -36 -19 -75 -35 -38 -16 -71 -33
-73 -37 -2 -5 -8 -8 -14 -8 -6 0 -60 -24 -122 -54 -61 -30 -151 -73 -201 -96
-49 -23 -130 -62 -178 -86 -49 -24 -95 -44 -103 -44 -8 0 -14 -4 -14 -9 0 -5
-10 -13 -22 -16 -13 -4 -95 -43 -184 -86 -88 -44 -166 -79 -172 -79 -5 0 -12
-3 -14 -7 -1 -5 -32 -21 -68 -38 -36 -16 -71 -36 -78 -42 -7 -7 -18 -13 -24
-13 -13 0 -581 -281 -588 -291 -3 -4 -25 -15 -50 -25 -25 -10 -47 -21 -50 -24
-3 -4 -23 -15 -45 -26 -22 -10 -42 -21 -45 -24 -3 -3 -39 -23 -80 -44 -41 -21
-77 -41 -80 -45 -3 -4 -21 -15 -40 -24 -52 -26 -91 -53 -140 -99 -26 -23 -35
-82 -21 -129 24 -79 139 -99 316 -54 39 9 97 23 130 31 57 13 144 36 315 84
41 11 116 31 165 45 50 13 131 36 180 50 50 14 115 32 145 41 64 18 129 37
203 59 57 17 144 42 282 79 50 13 104 29 120 34 47 15 130 39 265 77 69 19
148 42 175 50 55 16 207 59 270 76 22 6 54 16 70 21 17 5 62 18 100 28 39 10
95 26 125 35 30 8 87 24 125 35 72 19 178 48 275 76 30 9 88 24 128 35 39 10
106 28 147 39 41 11 109 29 150 40 41 11 110 29 153 41 42 11 102 26 132 34
86 20 501 124 540 135 19 6 76 19 125 30 50 11 107 25 127 30 132 37 793 164
983 189 289 39 515 42 515 6 0 -13 -30 -77 -40 -85 -3 -3 -14 -23 -24 -45 -11
-22 -22 -42 -25 -45 -6 -5 -39 -63 -68 -120 -10 -19 -21 -36 -25 -38 -4 -2
-17 -22 -28 -45 -11 -23 -29 -55 -40 -72 -24 -37 -54 -87 -83 -140 -12 -22
-25 -42 -28 -45 -4 -3 -17 -25 -30 -49 -13 -24 -36 -65 -51 -90 -14 -25 -36
-66 -48 -91 -13 -25 -26 -47 -29 -50 -9 -6 -46 -87 -108 -235 -55 -130 -52
-230 11 -291 52 -51 67 -55 229 -61 147 -5 346 8 542 37 219 33 281 42 385 60
63 11 153 26 200 34 276 47 522 95 1180 232 971 202 970 202 1005 230 27 21
30 30 30 78 0 46 -4 58 -28 80 -31 29 -92 35 -157 16 -69 -21 -1545 -327
-1710 -355 -52 -9 -162 -29 -245 -45 -82 -16 -188 -34 -235 -40 -46 -6 -87
-13 -91 -16 -4 -2 -56 -11 -115 -20 -434 -63 -782 -91 -800 -63 -3 6 -2 21 4
32 5 12 20 45 31 72 12 28 26 57 31 65 5 8 23 44 41 80 17 36 34 67 38 70 3 3
15 24 25 48 11 23 22 42 25 42 4 0 15 20 25 45 11 25 23 45 27 45 4 0 13 16
20 35 7 19 17 35 21 35 4 0 14 15 23 32 8 18 26 51 39 73 33 52 62 100 89 150
12 22 24 42 27 45 11 11 70 112 70 120 0 5 6 15 13 22 7 7 25 38 40 68 15 30
31 62 37 70 24 36 60 131 60 158 0 36 -33 112 -57 132 -24 21 -99 55 -148 69
-87 24 -465 9 -705 -29 -88 -14 -798 -153 -885 -174 -33 -8 -112 -26 -175 -40
-63 -14 -137 -32 -165 -39 -27 -8 -84 -22 -125 -32 -41 -9 -88 -21 -105 -26
-28 -8 -119 -31 -255 -64 -30 -7 -109 -27 -175 -45 -66 -17 -153 -40 -192 -51
-180 -47 -221 -58 -273 -72 -103 -29 -215 -60 -285 -79 -38 -11 -101 -28 -140
-38 -38 -11 -95 -27 -125 -35 -30 -9 -95 -27 -145 -41 -199 -54 -232 -63 -285
-79 -30 -9 -86 -25 -125 -35 -38 -11 -110 -31 -160 -45 -49 -14 -115 -32 -145
-41 -30 -8 -75 -21 -100 -29 -130 -38 -267 -77 -390 -111 -47 -13 -107 -30
-135 -38 -48 -14 -130 -37 -205 -58 -38 -10 -96 -21 -67 -12 9 3 17 9 17 14 0
4 30 21 68 36 37 16 73 34 80 41 7 7 17 13 22 13 10 0 104 44 130 60 28 18
208 100 219 100 6 0 11 5 11 10 0 6 9 10 20 10 11 0 20 4 20 9 0 5 10 13 23
17 12 3 63 26 114 50 50 24 96 44 102 44 6 0 11 5 11 10 0 6 5 10 11 10 6 0
65 26 132 59 235 113 317 151 327 151 5 0 10 4 10 9 0 4 21 16 48 26 26 10 51
22 57 26 5 5 17 9 27 9 10 0 18 4 18 9 0 5 10 13 23 16 12 4 73 31 135 61 62
30 117 54 122 54 6 0 10 5 10 10 0 6 5 10 12 10 10 0 103 40 140 60 10 6 25
10 33 10 8 0 15 4 15 9 0 5 10 13 23 17 24 7 131 57 292 135 56 27 106 49 113
49 7 0 12 5 12 10 0 6 5 10 12 10 10 0 103 40 140 60 10 6 25 10 33 10 8 0 15
4 15 9 0 4 21 16 48 26 26 10 51 22 57 26 5 5 17 9 27 9 10 0 18 4 18 8 0 5
33 22 73 37 39 16 74 31 77 35 3 3 37 19 75 35 39 16 72 33 73 37 2 5 8 8 14
8 6 0 36 12 67 26 31 15 98 46 148 70 51 24 97 44 103 44 5 0 10 4 10 9 0 4
34 21 75 37 41 16 75 32 75 36 0 5 6 8 13 8 6 0 35 11 62 25 28 13 56 25 63
25 6 0 12 5 12 10 0 6 11 10 25 10 14 0 25 4 25 9 0 4 21 16 48 26 26 10 51
22 57 26 5 5 17 9 27 9 10 0 18 4 18 8 0 5 33 22 73 37 39 16 74 32 77 36 3 4
37 20 75 35 39 15 72 30 75 34 3 3 37 19 75 35 39 16 72 33 73 37 2 5 9 8 15
8 6 0 29 9 51 19 23 10 59 27 81 36 22 10 72 32 110 50 144 67 184 85 192 85
10 1 64 57 86 90 18 26 23 95 8 104 -4 3 -11 20 -15 37 -8 43 -75 105 -144
132 -178 71 -666 70 -1249 -3 -46 -5 -122 -15 -170 -20 -122 -15 -340 -47
-518 -75 -82 -14 -175 -27 -205 -31 -30 -3 -203 -32 -385 -64 -181 -33 -386
-68 -455 -80 -69 -12 -136 -23 -150 -26 -14 -2 -18 -1 -10 3 8 3 53 24 100 46
47 22 123 57 170 79 47 21 97 45 112 53 14 8 33 15 42 15 9 0 16 4 16 10 0 5
12 13 28 16 15 4 36 13 47 20 11 8 27 14 37 14 10 0 18 4 18 9 0 5 14 13 32
16 17 4 38 14 46 21 7 8 21 14 30 14 9 0 26 7 36 15 11 8 28 15 38 15 10 0 18
4 18 9 0 5 12 12 28 15 27 7 233 93 312 131 14 7 39 15 55 19 17 4 44 14 60
21 40 19 208 71 270 84 28 5 95 15 150 21 55 7 134 21 175 32 41 11 127 33
190 50 86 23 149 33 250 39 422 24 573 33 940 60 223 15 446 33 495 38 50 6
140 15 200 21 587 58 1083 122 1455 189 325 58 340 64 375 135 17 33 20 106 5
106 -5 0 -10 8 -10 18 0 10 -14 31 -31 48 -29 28 -34 29 -122 29 -51 0 -146
-6 -212 -13 -66 -7 -192 -20 -280 -28 -88 -7 -203 -18 -255 -24 -52 -5 -198
-19 -325 -30 -126 -11 -302 -27 -390 -34 -88 -8 -214 -20 -280 -25 -66 -6
-145 -13 -175 -15 l-55 -5 65 23 c36 13 94 33 130 45 36 12 76 27 90 35 14 7
48 19 75 26 28 8 52 16 55 19 3 3 41 18 85 33 44 15 116 40 160 56 44 16 107
39 140 51 33 11 69 25 80 31 11 5 47 19 80 31 33 12 78 28 100 36 22 7 54 20
72 28 17 8 35 15 40 15 4 0 20 6 35 14 14 8 43 19 65 26 21 7 52 18 68 26 17
7 48 19 70 27 90 32 140 52 145 58 3 4 16 9 30 13 14 4 52 19 85 33 33 13 76
31 95 39 19 8 43 19 53 25 9 5 38 16 63 25 49 16 163 66 206 90 14 7 33 14 42
14 9 0 16 5 16 10 0 6 6 10 13 10 10 0 47 18 158 76 15 8 32 21 39 29 7 8 19
15 26 15 16 0 74 52 74 66 0 6 9 27 20 49 23 46 26 103 6 148 -19 43 -83 110
-126 132 -19 10 -37 21 -40 24 -9 12 -91 33 -185 47 -166 25 -309 19 -655 -31
-173 -25 -342 -52 -375 -60 -33 -8 -143 -25 -245 -40 -102 -14 -201 -30 -220
-36 -19 -5 -105 -21 -190 -35 -222 -35 -378 -62 -434 -75 -27 -6 -99 -20 -160
-30 -112 -18 -289 -50 -491 -89 -60 -11 -155 -29 -210 -40 -55 -10 -145 -28
-200 -38 -55 -11 -138 -27 -185 -36 -47 -9 -107 -21 -135 -28 -27 -6 -81 -17
-120 -24 -93 -18 -199 -39 -260 -53 -27 -6 -80 -18 -117 -26 -70 -15 -168 -37
-273 -61 -33 -7 -94 -20 -135 -30 -185 -40 -391 -89 -455 -106 -22 -6 -58 -14
-80 -18 -22 -5 -71 -17 -110 -28 -38 -11 -92 -25 -120 -32 -27 -7 -122 -33
-210 -57 -88 -25 -200 -56 -250 -70 -125 -33 -141 -38 -220 -67 -38 -13 -117
-39 -175 -57 -58 -18 -107 -36 -110 -40 -3 -3 -33 -15 -67 -25 -35 -10 -63
-22 -63 -25 0 -4 -15 -10 -32 -14 -18 -4 -55 -18 -81 -31 -27 -13 -55 -24 -63
-24 -8 0 -14 -4 -14 -9 0 -5 -13 -12 -30 -16 -16 -4 -30 -11 -30 -16 0 -5 -5
-9 -11 -9 -18 0 -116 -50 -129 -65 -7 -8 -17 -15 -22 -15 -5 0 -26 -16 -46
-35 -36 -33 -37 -37 -37 -103 0 -65 2 -69 37 -105 21 -20 44 -37 51 -37 8 0
20 -6 26 -13 11 -14 144 -54 266 -81 83 -18 269 -44 378 -52 42 -3 77 -9 77
-13 0 -4 -60 -17 -132 -29 -184 -30 -565 -108 -773 -157 -33 -8 -103 -24 -155
-35 -187 -42 -272 -62 -410 -98 -41 -11 -113 -30 -160 -42 -47 -11 -116 -30
-155 -40 -38 -11 -106 -29 -150 -40 -44 -12 -111 -31 -150 -42 -38 -11 -108
-30 -155 -42 -47 -13 -125 -35 -175 -50 -49 -15 -164 -50 -255 -77 -91 -28
-387 -124 -659 -214 -353 -117 -488 -158 -475 -144 9 10 22 19 29 19 7 0 20 9
30 20 10 11 23 20 30 20 6 0 20 8 31 18 10 9 31 23 47 31 15 8 27 18 27 23 0
4 6 8 13 8 7 0 22 8 33 18 10 9 31 23 47 31 15 8 27 18 27 23 0 4 6 8 13 8 7
0 22 8 33 18 10 9 31 23 47 31 15 8 27 18 27 23 0 4 8 8 18 8 10 0 24 9 32 20
8 11 22 20 32 20 10 0 18 4 18 8 0 5 20 19 45 32 25 13 45 27 45 32 0 4 6 8
13 8 7 0 22 8 33 18 10 9 31 23 47 31 15 8 27 18 27 23 0 4 9 8 20 8 11 0 20
4 20 9 0 5 15 16 33 25 17 9 77 46 132 81 55 35 115 72 133 81 17 9 32 20 32
25 0 5 6 9 13 9 7 0 23 9 35 20 12 11 28 20 37 20 8 0 15 4 15 9 0 5 15 16 33
25 17 9 50 27 72 41 22 13 55 32 73 41 17 9 32 20 32 25 0 5 6 9 13 9 7 0 23
9 35 20 12 11 28 20 35 20 8 0 20 6 26 14 7 8 36 27 64 41 29 15 59 33 67 39
8 7 27 18 43 26 15 7 27 17 27 22 0 4 8 8 18 8 10 0 24 9 32 20 8 11 21 20 28
20 8 0 26 8 40 18 43 28 65 40 100 58 17 9 32 20 32 25 0 5 8 9 18 9 10 0 24
9 32 20 8 11 22 20 32 20 9 0 20 5 23 10 4 6 21 17 38 25 48 22 102 56 105 66
2 5 12 9 23 9 10 0 19 4 19 8 0 5 18 17 40 27 22 10 40 22 40 27 0 4 8 8 19 8
10 0 25 7 32 16 7 9 22 20 34 25 11 5 38 20 60 33 22 14 55 33 73 42 17 9 32
20 32 25 0 5 8 9 18 9 11 0 27 9 37 20 10 11 26 20 36 20 10 0 21 4 24 10 3 5
21 17 40 26 19 9 35 20 35 25 0 5 9 9 20 9 11 0 20 4 20 9 0 5 16 16 35 25 19
9 37 21 40 26 3 6 14 10 24 10 10 0 24 6 30 14 7 8 36 27 64 41 29 15 59 33
68 41 8 8 22 14 30 14 8 0 21 9 29 20 8 11 21 20 30 21 8 0 35 13 60 29 25 16
60 36 78 46 17 9 32 20 32 25 0 5 9 9 19 9 11 0 22 4 26 9 3 6 18 16 33 24 29
15 89 49 137 78 17 10 45 26 63 35 17 9 32 20 32 25 0 5 9 9 20 9 11 0 20 4
20 9 0 5 12 14 28 20 24 9 58 28 147 82 17 10 45 26 63 35 17 9 32 20 32 25 0
5 9 9 20 9 11 0 20 4 20 9 0 5 12 14 28 20 38 15 116 62 120 72 2 5 12 9 22 9
10 0 22 4 25 10 3 5 21 17 40 26 19 9 35 20 35 25 0 5 9 9 20 9 11 0 20 4 20
8 0 5 18 16 40 26 22 10 40 22 40 27 0 5 8 9 18 9 11 0 27 9 37 20 10 11 26
20 37 20 10 0 18 4 18 8 0 5 18 16 40 26 22 10 40 22 40 27 0 5 9 9 20 9 11 0
20 4 20 8 0 5 18 17 40 27 22 10 40 22 40 27 0 4 8 8 18 8 10 0 24 9 32 20 8
11 21 20 30 21 8 0 35 13 60 29 25 16 60 36 78 46 17 9 32 20 32 25 0 5 7 9
15 9 9 0 21 5 28 10 17 15 77 53 110 69 15 8 27 18 27 23 0 4 8 8 18 8 10 0
24 9 32 20 8 11 22 20 31 20 9 0 22 7 29 15 7 8 18 15 24 15 7 0 21 8 32 18
10 9 31 23 47 31 15 8 27 18 27 23 0 4 8 8 18 8 10 0 24 9 32 20 8 11 21 20
30 20 9 0 22 9 30 20 8 11 19 20 25 20 9 0 24 11 103 77 17 15 32 33 32 40 0
7 4 13 9 13 14 0 51 87 51 119 0 17 -4 33 -10 36 -5 3 -10 13 -10 21 0 28 -64
79 -121 97 -133 41 -427 9 -809 -90 -74 -19 -151 -39 -170 -44 -47 -12 -161
-46 -235 -70 -121 -39 -222 -71 -305 -96 -47 -14 -89 -28 -95 -33 -5 -4 -64
-24 -130 -45 -66 -20 -124 -40 -130 -45 -5 -4 -37 -15 -70 -25 -33 -10 -64
-21 -70 -25 -5 -4 -48 -20 -94 -35 -46 -15 -95 -34 -110 -41 -14 -8 -31 -14
-38 -14 -7 0 -36 -10 -65 -23 -29 -13 -73 -30 -98 -37 -25 -8 -49 -17 -55 -21
-5 -4 -35 -16 -65 -27 -30 -11 -86 -32 -125 -47 -38 -15 -85 -33 -102 -39 -18
-6 -33 -14 -33 -18 0 -3 -15 -10 -32 -14 -18 -3 -55 -17 -83 -29 -27 -12 -84
-34 -125 -50 -41 -16 -80 -33 -87 -37 -6 -5 -26 -13 -44 -18 l-33 -10 34 31
c108 97 180 173 180 189 0 6 4 10 9 10 15 0 71 130 71 166 0 34 -21 86 -44
110 -69 68 -282 72 -551 10 -193 -45 -502 -134 -590 -170 -38 -16 -73 -28
-210 -73 -60 -19 -114 -39 -120 -43 -5 -4 -41 -17 -80 -30 -38 -12 -83 -28
-100 -36 -28 -12 -113 -44 -260 -97 -33 -12 -62 -25 -65 -28 -3 -3 -23 -12
-45 -19 -38 -12 -67 -23 -143 -56 -18 -8 -37 -14 -42 -14 -5 0 -33 -11 -62
-24 -29 -13 -71 -29 -93 -36 -22 -7 -49 -19 -60 -25 -11 -7 -41 -19 -67 -26
-27 -7 -48 -16 -48 -20 0 -3 -27 -14 -60 -24 -33 -10 -60 -22 -60 -26 0 -4
-15 -10 -32 -14 -18 -4 -53 -17 -78 -29 -25 -12 -66 -29 -92 -36 -27 -8 -48
-17 -48 -21 0 -3 -27 -14 -60 -24 -33 -10 -60 -22 -60 -26 0 -4 -15 -10 -32
-14 -18 -4 -53 -17 -78 -29 -25 -12 -66 -29 -92 -36 -27 -8 -48 -17 -48 -21 0
-3 -27 -14 -60 -24 -33 -10 -60 -21 -60 -25 0 -4 -19 -13 -42 -19 -24 -7 -61
-21 -83 -31 -22 -10 -58 -24 -80 -31 -22 -8 -42 -16 -45 -19 -3 -3 -43 -19
-90 -35 -47 -15 -87 -32 -90 -35 -3 -4 -23 -13 -45 -20 -22 -7 -53 -18 -70
-25 -16 -7 -43 -18 -60 -25 -99 -40 -170 -51 -91 -14 20 10 36 21 36 26 0 4 9
8 19 8 11 0 22 4 26 9 3 6 27 20 53 33 26 13 53 29 60 36 7 6 22 12 33 12 10
0 19 4 19 9 0 5 10 13 22 16 11 4 44 21 72 38 50 30 697 356 852 430 43 20 85
37 92 37 6 0 12 4 12 10 0 5 12 13 27 16 15 4 34 13 41 21 7 7 20 13 28 13 8
0 36 11 62 25 26 14 53 25 59 25 7 0 13 4 13 9 0 5 14 12 30 16 17 4 30 11 30
16 0 5 12 12 28 15 15 4 63 24 107 44 130 62 195 90 205 90 6 0 10 5 10 10 0
6 5 10 11 10 6 0 26 7 45 15 19 8 49 22 68 30 19 8 39 15 45 15 6 0 11 4 11 9
0 5 12 12 28 16 15 3 49 17 75 31 27 13 55 24 63 24 8 0 14 4 14 10 0 5 12 13
28 16 15 4 59 21 97 39 112 52 142 65 154 65 6 0 11 4 11 8 0 5 27 17 60 27
33 10 60 21 60 25 0 3 26 15 58 25 31 11 63 25 70 32 7 7 20 13 29 13 8 0 37
11 65 25 27 14 54 25 60 25 5 0 31 11 57 23 25 13 78 34 116 47 149 49 204
185 112 277 -31 31 -44 35 -128 48 -216 32 -327 38 -601 32 -150 -4 -318 -12
-373 -17 -55 -6 -138 -14 -185 -19 -190 -19 -783 -105 -835 -121 -16 -5 -91
-21 -165 -34 -239 -44 -396 -75 -421 -84 -13 -5 -46 -12 -74 -16 -27 -4 -75
-13 -105 -21 -30 -7 -75 -18 -100 -24 -100 -22 -148 -33 -200 -46 -30 -7 -84
-20 -120 -29 -36 -8 -139 -34 -230 -57 -91 -23 -181 -45 -200 -49 -19 -4 -53
-12 -75 -18 -22 -6 -78 -20 -125 -32 -224 -57 -448 -118 -630 -171 -100 -29
-184 -48 -189 -44 -2 2 8 7 23 11 14 3 26 10 26 15 0 5 8 9 18 9 9 0 40 11 67
25 28 13 56 25 63 25 6 0 12 5 12 10 0 6 8 10 18 10 9 0 40 11 67 25 28 13 58
25 68 25 9 0 17 5 17 10 0 6 9 10 19 10 11 0 22 4 25 9 3 5 29 16 58 26 50 16
118 44 168 69 14 7 68 28 120 46 52 19 97 37 98 42 2 4 11 8 21 8 9 0 21 4 27
9 5 4 81 34 169 66 88 32 162 62 163 66 2 5 12 9 23 9 11 0 27 4 37 9 46 24
147 61 537 201 204 73 378 136 387 141 10 5 27 9 37 9 11 0 23 5 26 10 3 6 14
10 24 10 10 0 112 34 227 76 115 42 225 81 244 86 19 5 44 13 55 17 11 5 43
15 70 24 28 8 102 33 165 55 185 64 450 149 680 217 47 14 112 34 145 44 73
22 201 58 275 78 30 8 80 21 110 29 30 8 79 22 108 29 28 8 76 21 105 29 28 8
75 20 102 27 28 6 75 18 105 26 67 18 100 26 215 53 50 12 113 28 140 36 59
16 269 66 375 89 41 9 98 22 125 30 59 16 254 61 305 70 19 3 58 12 85 20 51
14 186 45 490 112 39 8 115 25 170 38 55 12 154 35 220 50 185 42 717 170 880
212 143 36 152 39 230 62 39 12 108 32 155 45 177 50 473 153 478 168 2 4 15
8 28 8 13 0 24 4 24 9 0 5 23 17 50 27 28 10 50 21 50 25 0 4 12 12 28 18 47
20 82 42 82 52 0 5 6 9 13 9 22 0 123 107 150 159 28 52 49 181 30 181 -6 0
-13 18 -17 40 -3 22 -11 40 -16 40 -5 0 -12 11 -16 24 -5 22 -44 65 -118 132
-17 15 -46 33 -65 41 -20 9 -38 19 -41 23 -12 19 -278 33 -440 23z m355 -261
c44 -27 105 -94 105 -114 0 -18 -64 -88 -80 -88 -6 0 -10 -4 -10 -10 0 -5 -11
-12 -25 -16 -14 -3 -25 -9 -25 -13 0 -8 -71 -41 -88 -41 -5 0 -12 -4 -14 -9
-4 -12 -248 -106 -342 -133 -38 -10 -76 -23 -85 -27 -9 -5 -43 -16 -76 -25
-33 -9 -91 -25 -130 -36 -38 -12 -86 -25 -105 -30 -19 -4 -159 -39 -310 -77
-151 -38 -320 -80 -375 -93 -55 -12 -145 -33 -200 -46 -175 -41 -307 -71 -430
-98 -154 -35 -305 -69 -425 -96 -52 -12 -124 -28 -160 -36 -36 -8 -81 -19
-100 -24 -34 -8 -96 -22 -252 -55 -40 -9 -95 -22 -123 -30 -27 -7 -84 -21
-125 -30 -106 -23 -315 -73 -380 -90 -83 -22 -181 -46 -220 -55 -19 -4 -107
-26 -195 -50 -88 -23 -176 -46 -195 -49 -19 -4 -51 -12 -70 -18 -19 -6 -60
-18 -90 -26 -30 -8 -86 -24 -125 -35 -38 -11 -106 -30 -150 -42 -44 -12 -107
-30 -140 -40 -57 -18 -100 -31 -310 -95 -204 -61 -733 -238 -767 -256 -10 -5
-25 -9 -33 -9 -15 0 -486 -165 -517 -181 -10 -5 -27 -9 -37 -9 -11 0 -23 -4
-26 -10 -3 -5 -17 -10 -31 -10 -13 0 -24 -4 -24 -10 0 -5 -9 -10 -20 -10 -30
0 -628 -217 -692 -251 -10 -5 -24 -9 -31 -9 -7 0 -33 -10 -57 -21 -25 -12 -56
-25 -70 -29 -14 -5 -63 -23 -110 -40 -47 -18 -106 -39 -132 -48 -27 -9 -48
-19 -48 -24 0 -4 -8 -8 -18 -8 -10 0 -37 -9 -60 -20 -22 -11 -85 -36 -138 -55
-54 -20 -102 -39 -108 -44 -6 -5 -56 -26 -111 -46 -55 -21 -109 -43 -120 -50
-11 -7 -49 -23 -85 -35 -35 -13 -70 -29 -78 -36 -7 -8 -19 -14 -26 -14 -16 0
-119 -41 -126 -51 -3 -3 -16 -10 -30 -14 -14 -4 -45 -17 -70 -28 -87 -38 -125
-55 -165 -72 -22 -10 -58 -26 -80 -36 -22 -10 -52 -21 -67 -24 -16 -4 -28 -11
-28 -15 0 -4 -36 -20 -80 -36 -44 -15 -80 -31 -80 -35 0 -3 -10 -9 -22 -12
-33 -7 -192 -69 -198 -76 -8 -10 -70 -30 -70 -23 1 4 52 45 115 92 63 47 125
93 137 102 33 25 42 32 60 43 9 6 56 37 105 70 48 33 92 62 98 64 5 2 16 10
23 18 7 7 20 13 27 13 8 0 18 6 22 13 9 14 31 28 83 54 19 9 41 23 48 30 7 7
17 13 22 13 5 0 15 6 22 13 7 6 27 19 43 27 17 8 32 18 35 21 5 6 32 21 100
56 19 10 41 23 48 30 7 6 28 17 47 24 19 7 35 16 35 20 0 3 20 14 45 25 25 10
45 21 45 25 0 3 20 14 45 25 25 10 45 21 45 25 0 3 21 14 48 24 26 10 54 23
62 30 22 18 241 125 255 125 8 0 15 4 17 9 3 9 112 61 127 61 5 0 11 3 13 8 4
9 162 82 178 82 5 0 10 5 10 10 0 6 5 10 12 10 6 0 43 15 82 34 39 18 88 39
109 47 20 7 37 17 37 21 0 4 11 8 25 8 14 0 25 5 25 10 0 6 8 10 18 10 10 0
22 4 28 9 9 9 82 41 339 147 77 31 142 61 143 66 2 4 15 8 28 8 13 0 24 5 24
10 0 6 11 10 25 10 14 0 25 5 25 10 0 6 11 10 25 10 14 0 25 5 25 10 0 6 8 10
18 10 14 0 123 42 567 219 11 4 47 17 80 28 50 17 138 50 280 103 23 9 185 66
325 115 52 18 140 48 195 67 192 67 230 80 279 94 27 7 72 22 100 32 60 22
127 44 331 107 83 26 175 55 205 64 30 10 89 28 130 41 41 12 95 29 120 36 25
8 99 30 165 49 66 19 136 40 155 47 19 6 49 14 65 19 17 4 56 14 88 23 31 9
83 23 115 32 31 9 80 22 107 30 28 8 82 23 120 33 246 66 354 94 385 102 35 8
468 114 610 149 115 29 334 77 445 99 55 11 174 35 265 54 91 19 228 45 305
57 77 12 192 30 255 40 63 10 160 23 215 30 55 6 134 15 175 21 93 12 148 15
370 17 154 2 179 0 205 -16z m3900 -3682 c-3 -5 -12 -10 -20 -10 -7 0 -26 -6
-42 -14 -66 -34 -215 -96 -228 -96 -8 0 -15 -4 -15 -10 0 -5 -16 -12 -35 -16
-19 -3 -35 -10 -35 -14 0 -4 -19 -12 -42 -19 -24 -7 -56 -19 -73 -26 -83 -37
-122 -53 -145 -60 -14 -4 -38 -13 -55 -20 -72 -32 -188 -75 -201 -75 -8 0 -14
-4 -14 -8 0 -5 -29 -17 -65 -27 -36 -11 -65 -22 -65 -25 0 -3 -28 -14 -62 -25
-35 -10 -68 -22 -74 -27 -6 -4 -36 -15 -65 -24 -30 -9 -58 -19 -64 -24 -5 -4
-37 -15 -70 -25 -33 -10 -69 -24 -80 -30 -11 -7 -42 -18 -70 -25 -27 -8 -52
-16 -55 -19 -3 -4 -45 -19 -95 -35 -49 -16 -94 -32 -100 -36 -5 -5 -30 -13
-55 -20 -25 -6 -58 -18 -75 -25 -32 -15 -167 -62 -275 -97 -36 -11 -69 -24
-75 -28 -5 -4 -44 -18 -85 -30 -41 -12 -88 -28 -105 -35 -16 -7 -138 -48 -270
-90 -132 -43 -262 -86 -290 -96 -27 -10 -120 -39 -205 -64 -85 -26 -177 -55
-205 -64 -46 -17 -126 -29 -405 -63 -169 -21 -1586 -17 -1830 5 -348 31 -414
38 -419 43 -8 8 19 22 79 41 30 9 57 20 60 24 3 4 21 11 40 17 19 5 114 35
210 65 354 110 720 212 940 262 81 18 114 26 200 49 30 8 89 22 130 31 41 9
93 21 114 26 21 6 60 15 85 19 25 5 75 16 111 24 36 7 90 19 120 26 30 6 73
16 94 22 21 5 60 13 85 18 25 4 89 18 141 30 52 12 129 28 170 36 73 13 198
38 350 69 103 22 327 64 430 81 47 8 101 19 120 25 19 6 89 19 155 30 283 48
391 67 405 73 8 3 71 15 140 26 351 56 538 87 546 93 5 3 111 20 234 37 124
17 234 35 245 40 45 21 630 98 748 99 77 1 116 -3 112 -9z m-5120 -1769 c-24
-8 -57 -23 -308 -140 -48 -22 -111 -50 -140 -62 -28 -12 -59 -28 -68 -36 -8
-7 -22 -13 -30 -13 -8 0 -23 -7 -33 -15 -11 -8 -28 -15 -38 -15 -10 0 -18 -4
-18 -9 0 -5 -10 -13 -22 -16 -24 -7 -73 -28 -120 -52 -14 -7 -33 -13 -42 -13
-9 0 -16 -4 -16 -9 0 -5 -10 -13 -22 -16 -24 -7 -45 -16 -148 -64 -36 -16 -92
-42 -125 -56 -33 -15 -78 -35 -100 -45 -57 -26 -141 -64 -200 -89 -27 -12 -63
-28 -80 -36 -85 -39 -166 -75 -169 -75 -3 0 -35 -14 -73 -31 -37 -17 -81 -37
-98 -44 -16 -7 -79 -22 -140 -34 -60 -11 -155 -30 -210 -42 -55 -11 -219 -43
-365 -70 -146 -26 -350 -64 -454 -83 -261 -49 -435 -75 -609 -91 -82 -8 -176
-21 -210 -29 -34 -8 -96 -22 -137 -31 -41 -9 -97 -22 -125 -30 -27 -7 -90 -23
-140 -34 -49 -12 -112 -28 -140 -35 -132 -35 -185 -50 -240 -66 -33 -10 -96
-28 -140 -40 -209 -57 -297 -82 -570 -164 -44 -13 -116 -34 -160 -46 -44 -12
-100 -29 -124 -36 -25 -8 -47 -12 -49 -9 -3 3 -1 5 5 5 5 0 21 9 34 20 37 30
42 34 79 60 19 13 40 28 45 32 6 5 28 22 50 39 22 16 48 36 57 44 28 23 49 32
193 81 77 26 142 51 143 56 2 4 14 8 26 8 12 0 26 4 31 8 12 10 35 19 310 113
116 39 214 75 220 80 5 5 18 9 30 9 12 0 25 4 30 8 6 5 30 15 55 22 25 8 50
17 55 20 6 4 111 40 235 80 124 40 233 76 242 81 10 5 23 9 30 9 7 0 116 34
241 75 126 41 234 75 240 75 6 0 74 20 151 44 78 24 193 58 256 76 63 17 151
42 196 56 44 13 86 24 94 24 8 0 50 11 94 25 45 13 126 36 181 50 195 50 221
57 280 72 174 43 256 62 395 93 52 12 120 27 150 35 30 7 75 16 100 20 25 3
65 13 90 20 25 8 68 17 95 20 28 4 70 13 95 20 25 8 81 19 125 25 44 7 100 18
125 25 25 8 106 23 180 35 74 11 164 27 200 36 77 18 464 82 500 82 22 0 22
-1 5 -7z m-3435 -1406 c-14 -8 -32 -17 -40 -21 -55 -23 -236 -109 -260 -124
-8 -5 -53 -27 -100 -50 -47 -22 -92 -45 -100 -49 -8 -5 -40 -21 -70 -37 -63
-31 -176 -90 -202 -104 -10 -6 -26 -14 -35 -20 -10 -5 -31 -16 -48 -25 -16 -8
-37 -19 -45 -24 -8 -4 -33 -18 -55 -29 -22 -11 -65 -33 -95 -49 -30 -17 -91
-49 -135 -73 -44 -24 -99 -53 -122 -66 -98 -54 -131 -73 -183 -101 -89 -48
-151 -83 -222 -125 -37 -21 -89 -50 -115 -64 -26 -14 -64 -34 -83 -46 -36 -21
-73 -42 -170 -95 -85 -46 -231 -129 -293 -167 -18 -10 -52 -30 -77 -44 -25
-13 -85 -47 -133 -76 -49 -28 -110 -62 -135 -76 -26 -14 -91 -51 -145 -83 -55
-33 -120 -70 -145 -83 -26 -14 -65 -36 -87 -50 -22 -13 -47 -27 -55 -31 -8 -4
-38 -21 -66 -39 -29 -18 -78 -47 -110 -64 -33 -17 -77 -42 -99 -56 -22 -13
-47 -27 -55 -31 -8 -4 -40 -23 -70 -42 -30 -20 -80 -48 -110 -64 -30 -15 -73
-39 -95 -52 -22 -14 -47 -28 -55 -32 -8 -4 -41 -24 -73 -45 -32 -21 -60 -38
-63 -38 -4 0 -238 -135 -340 -195 -18 -11 -77 -44 -131 -74 -54 -30 -116 -66
-138 -80 -22 -14 -52 -32 -68 -41 -15 -8 -69 -40 -119 -69 -51 -30 -108 -63
-128 -73 -19 -10 -51 -28 -70 -40 -19 -12 -44 -26 -55 -32 -18 -11 -159 -95
-195 -116 -8 -5 -100 -58 -203 -117 -104 -60 -203 -116 -220 -126 -18 -10
-108 -62 -200 -115 -93 -54 -183 -106 -200 -116 -18 -10 -57 -32 -87 -49 -52
-28 -368 -208 -400 -227 -8 -5 -34 -19 -57 -30 -23 -12 -57 -31 -75 -43 -18
-12 -44 -28 -58 -35 -14 -7 -41 -22 -60 -33 -19 -12 -64 -37 -100 -56 -36 -19
-83 -45 -105 -58 -77 -45 -101 -58 -165 -92 -72 -37 -92 -49 -133 -76 -56 -37
-38 -8 22 36 33 25 67 51 75 58 8 8 45 37 81 64 37 28 104 79 150 115 45 36
123 97 173 135 50 39 129 99 175 135 46 36 114 88 151 115 37 28 93 70 125 95
32 25 70 54 85 65 16 11 43 31 60 45 18 14 45 34 61 45 15 11 45 34 66 50 21
17 66 50 99 75 34 25 76 57 93 71 18 15 50 39 73 55 43 30 225 168 465 351 78
59 169 128 203 152 33 24 63 48 64 52 2 5 10 9 17 9 7 0 15 3 17 8 2 4 28 25
58 47 30 22 57 42 60 45 3 3 30 23 60 45 30 22 57 42 60 45 3 3 30 23 60 45
30 22 57 42 60 45 3 3 30 23 60 45 30 22 57 42 60 45 3 3 30 23 60 45 30 22
57 42 60 45 3 3 30 23 60 45 30 22 57 42 60 45 3 3 30 23 60 45 30 22 57 42
60 45 3 3 30 23 60 45 30 22 60 43 65 48 6 4 71 53 145 107 74 55 141 105 149
112 8 6 37 27 65 46 28 20 53 38 56 41 3 4 30 24 60 46 30 22 57 42 60 45 3 3
30 23 60 45 30 22 60 44 66 50 7 5 56 42 109 80 54 39 121 88 149 110 28 22
74 56 101 74 28 19 52 38 55 41 19 21 111 80 135 85 17 4 77 22 135 40 58 18
155 47 215 65 61 17 144 42 185 55 220 68 316 96 500 150 52 15 122 36 155 45
33 10 103 30 155 45 52 15 122 35 155 45 33 10 89 25 125 35 36 10 85 24 110
31 56 17 154 44 200 54 19 5 89 23 155 40 66 18 138 36 160 41 22 4 65 15 95
23 85 22 395 71 475 74 l30 2 -25 -15z m-3050 -469 c0 -17 -138 -98 -196 -116
-38 -11 -109 -34 -159 -50 -49 -16 -116 -36 -147 -45 -32 -8 -64 -18 -73 -21
-8 -3 -15 -2 -15 2 0 5 15 14 33 20 110 38 245 89 262 99 11 7 76 32 145 55
69 24 127 47 128 52 4 8 22 12 22 4z"/>
<path d="M16384 10481 c-91 -42 -127 -143 -82 -231 33 -64 85 -92 161 -87 146
9 209 168 110 277 -53 60 -118 73 -189 41z"/>
<path d="M12182 10423 c-18 -9 -45 -32 -60 -51 -23 -30 -27 -45 -27 -102 0
-58 4 -71 29 -104 89 -117 275 -70 301 76 24 131 -123 240 -243 181z"/>
</g>
</svg>
