 <svg version="1.0" xmlns="http://www.w3.org/2000/svg" width="700.000000pt" height="565.000000pt" viewBox="0 0 700.000000 565.000000" preserveAspectRatio="xMidYMid meet">
<metadata>
Created by potrace 1.12, written by Peter Selinger 2001-2015
</metadata>
<g transform="translate(0.000000,565.000000) scale(0.100000,-0.100000)" fill="#000000" stroke="none">
<path d="M3785 5559 c-16 -4 -79 -22 -140 -38 -99 -27 -228 -70 -428 -144 -37
-13 -76 -32 -86 -41 -10 -9 -26 -16 -37 -16 -10 0 -41 -14 -69 -30 -27 -16
-58 -30 -67 -30 -9 0 -30 -11 -46 -25 -16 -13 -51 -32 -78 -41 -27 -9 -58 -24
-69 -34 -11 -9 -67 -39 -125 -64 -58 -26 -136 -67 -175 -92 -66 -41 -88 -54
-125 -68 -8 -3 -31 -16 -51 -29 -19 -12 -57 -35 -85 -51 -27 -16 -95 -59 -151
-95 -56 -36 -117 -74 -134 -83 -17 -9 -41 -25 -53 -36 -11 -11 -47 -36 -78
-56 -32 -19 -58 -40 -58 -45 0 -5 -20 -18 -44 -29 -44 -21 -92 -58 -196 -149
-32 -28 -73 -59 -91 -68 -18 -10 -64 -47 -103 -84 -39 -37 -96 -85 -126 -108
-30 -22 -66 -53 -80 -68 -14 -15 -41 -40 -61 -54 -50 -37 -444 -445 -492 -511
-23 -30 -65 -80 -94 -112 -29 -32 -53 -63 -53 -69 0 -6 -23 -36 -51 -67 -54
-61 -196 -282 -235 -366 -17 -36 -24 -69 -24 -112 0 -58 2 -64 35 -93 39 -34
118 -61 178 -61 79 0 234 40 377 98 80 32 353 161 607 285 254 125 464 227
467 227 3 0 52 22 108 49 406 192 847 371 1210 490 260 85 298 96 298 84 0 -5
-26 -21 -58 -38 -31 -16 -70 -42 -87 -56 -16 -14 -46 -34 -65 -44 -19 -10 -71
-45 -114 -77 -44 -33 -104 -74 -133 -90 -29 -16 -74 -49 -100 -72 -48 -41
-137 -110 -203 -155 -19 -13 -52 -38 -75 -57 -22 -18 -123 -102 -225 -185
-194 -160 -315 -266 -465 -410 -49 -47 -100 -91 -112 -97 -33 -18 -40 5 -11
36 21 23 146 185 187 243 12 17 11 22 -9 44 l-24 25 25 33 c63 84 149 220 149
236 0 22 -19 41 -42 41 -19 0 -27 -10 -106 -137 -70 -114 -169 -234 -348 -423
-296 -312 -436 -471 -430 -485 3 -8 18 -18 33 -21 26 -7 39 5 196 167 93 96
203 213 245 261 41 48 78 86 80 83 7 -7 -61 -88 -159 -190 -48 -49 -108 -116
-135 -147 -27 -31 -110 -123 -184 -205 -202 -222 -770 -911 -845 -1027 -18
-28 -18 -29 0 -42 10 -8 27 -14 38 -14 26 0 144 121 354 365 331 386 796 876
813 859 5 -5 -4 -58 -21 -124 -36 -139 -66 -310 -71 -405 l-3 -70 35 0 c32 0
35 3 38 30 8 85 35 215 63 302 34 107 111 267 116 243 7 -31 -66 -487 -87
-545 -34 -93 -36 -115 -13 -115 11 0 27 8 35 18 18 20 52 122 68 206 7 32 20
83 31 113 34 98 201 325 228 308 18 -10 13 -41 -35 -230 -26 -99 -47 -196 -48
-215 -1 -31 2 -35 26 -38 19 -2 31 3 41 20 25 38 107 384 107 448 0 76 -25
110 -81 110 -35 0 -47 -8 -114 -71 -42 -40 -77 -70 -79 -68 -2 2 0 24 4 49 22
111 5 190 -41 190 -37 0 -18 29 89 131 346 331 865 751 1272 1031 137 94 477
311 529 338 56 28 228 72 391 99 558 93 1031 78 1170 -37 70 -59 29 -133 -150
-277 -190 -152 -588 -419 -820 -551 -36 -20 -89 -52 -117 -70 -54 -35 -64 -30
-38 16 30 53 9 98 -41 86 -21 -6 -35 -26 -76 -116 l-51 -109 -126 -77 c-69
-43 -137 -86 -150 -96 -15 -11 -28 -15 -33 -10 -6 6 7 77 32 175 44 176 44
194 -1 217 -42 23 -102 -23 -316 -239 -111 -113 -205 -203 -209 -199 -3 4 5
36 20 72 36 92 42 136 21 176 -16 30 -19 32 -58 27 -50 -7 -100 -57 -161 -160
-21 -37 -43 -67 -47 -67 -5 0 -9 17 -10 38 -2 81 -33 123 -66 90 -14 -15 -16
-41 -15 -210 2 -148 -1 -206 -13 -248 -9 -30 -18 -93 -22 -140 -7 -101 -17
-123 -70 -158 -22 -15 -85 -61 -139 -103 -55 -42 -207 -154 -339 -248 -132
-95 -246 -179 -254 -187 -31 -29 -2 -22 84 22 87 43 307 187 602 394 79 55
147 100 153 100 6 0 10 -93 10 -262 0 -292 9 -377 45 -456 14 -30 25 -58 25
-62 0 -4 -22 -22 -49 -39 -55 -36 -67 -54 -45 -72 49 -41 167 66 294 268 41
65 97 154 125 198 28 44 79 127 113 185 93 160 84 154 114 88 15 -31 38 -64
53 -74 25 -16 30 -16 54 -3 33 19 39 45 11 54 -28 9 -58 72 -66 137 -4 41 0
70 19 131 21 64 24 91 20 155 -6 88 23 230 54 264 21 23 192 138 205 138 12 0
17 11 -75 -171 -106 -211 -116 -259 -66 -322 18 -24 27 -27 85 -27 79 0 135
22 301 117 136 79 284 134 312 116 9 -6 15 -22 14 -38 -3 -37 -57 -150 -120
-250 -27 -44 -104 -166 -170 -271 -167 -265 -294 -485 -291 -503 5 -27 37 -24
66 6 16 15 75 107 131 203 57 96 140 226 184 288 187 266 297 470 297 552 0
104 -113 128 -285 61 -44 -17 -142 -66 -219 -110 -145 -83 -192 -99 -227 -81
-16 9 -19 17 -14 43 20 92 187 407 256 482 21 22 63 55 96 74 32 19 85 53 118
76 33 23 85 54 115 69 30 16 73 41 95 56 22 15 83 53 135 85 344 211 644 425
732 523 58 64 71 96 66 165 -4 58 -7 63 -55 107 -36 34 -72 54 -127 74 -128
45 -174 50 -446 50 -276 0 -417 -12 -609 -50 -132 -27 -169 -23 -109 14 108
65 846 442 866 442 5 0 52 20 103 44 139 65 130 65 184 2 52 -61 137 -111 209
-121 110 -17 193 91 262 339 l19 68 70 35 c39 19 80 44 93 56 42 39 20 104
-53 154 -37 25 -37 26 -31 79 10 86 21 99 113 146 84 43 105 67 83 93 -18 22
-60 18 -105 -10 -22 -14 -45 -25 -51 -25 -6 0 -14 26 -17 61 -5 58 -19 83 -42
76 -5 -2 -11 -42 -13 -89 -3 -100 11 -85 -175 -185 -65 -34 -129 -63 -141 -63
-57 0 -122 -34 -186 -98 -36 -36 -99 -87 -140 -113 -139 -88 -172 -114 -201
-153 -41 -55 -38 -87 12 -141 l41 -44 -354 -177 c-360 -180 -574 -294 -778
-414 -63 -38 -140 -76 -170 -84 -30 -9 -68 -22 -85 -28 -16 -6 -59 -18 -95
-28 -120 -32 -234 -70 -301 -100 -36 -16 -89 -34 -118 -40 -29 -5 -79 -21
-110 -35 -31 -13 -92 -38 -136 -54 -145 -53 -309 -118 -375 -150 -36 -17 -71
-31 -78 -31 -7 0 -47 -17 -90 -39 -42 -21 -122 -58 -177 -81 -133 -56 -524
-246 -875 -424 -295 -150 -436 -211 -603 -265 -84 -27 -112 -31 -207 -31 -128
0 -150 11 -150 78 0 85 162 347 387 627 138 172 597 643 732 751 520 417 899
672 1338 901 65 33 144 77 175 96 32 19 72 40 90 46 28 11 188 86 268 126 36
19 242 95 255 95 6 0 46 14 90 31 176 68 435 114 507 90 69 -23 59 -68 -46
-209 -239 -319 -972 -1046 -1317 -1305 -134 -101 -188 -129 -237 -124 -32 3
-48 0 -65 -14 l-22 -19 37 -35 c44 -40 73 -44 135 -15 92 41 280 185 478 366
180 163 585 566 772 765 350 376 428 508 360 610 l-23 34 -129 2 c-72 1 -143
-3 -160 -8z m1845 -338 c0 -16 -8 -38 -17 -50 -16 -19 -22 -20 -55 -11 -21 6
-38 15 -38 20 0 12 71 58 108 69 1 1 2 -12 2 -28z m-145 -91 c3 -5 23 -10 44
-10 56 0 68 -18 52 -83 -19 -74 -36 -96 -94 -122 -90 -39 -326 -117 -337 -110
-13 8 -13 116 0 149 10 27 42 52 145 113 102 61 176 85 190 63z m215 -100 c0
-22 -38 -46 -51 -33 -6 6 -5 22 2 41 9 27 14 30 30 22 10 -6 19 -19 19 -30z
m-632 -181 c4 -74 -8 -86 -96 -100 -64 -11 -75 -10 -89 4 -15 15 -15 18 3 38
28 32 156 120 168 116 6 -2 12 -28 14 -58z m432 -65 c0 -25 -64 -156 -94 -191
-34 -40 -70 -48 -126 -28 -48 17 -100 60 -100 83 0 7 19 21 43 30 23 9 91 40
152 69 60 29 113 53 117 53 5 0 8 -7 8 -16z m-1946 -1796 c-27 -147 -67 -295
-87 -316 -20 -22 -380 -268 -468 -320 -39 -23 -39 -23 -39 -3 0 39 62 172 84
181 12 4 129 116 260 249 132 132 243 241 248 241 4 0 5 -15 2 -32z m-522
-224 c-17 -43 -48 -124 -71 -179 -23 -55 -47 -111 -52 -124 -8 -18 -13 -21
-22 -12 -36 36 80 348 152 409 27 22 24 -7 -7 -94z m417 -241 c0 -10 -8 -42
-17 -72 l-17 -54 -90 -36 c-50 -20 -143 -67 -207 -104 -158 -92 -247 -106
-145 -24 64 52 449 307 464 307 7 0 13 -8 12 -17z m-1839 -63 c0 -14 -178
-198 -204 -212 -17 -9 -17 -7 3 18 44 57 183 204 192 204 5 0 9 -5 9 -10z
m1785 -217 c-1 -41 -13 -74 -67 -184 -37 -74 -86 -165 -111 -204 -24 -38 -87
-140 -140 -226 -53 -85 -108 -168 -123 -184 -25 -27 -27 -28 -40 -11 -20 28
-25 99 -27 396 l-2 275 71 6 c63 4 83 12 175 63 57 33 111 65 119 72 18 15
121 53 135 50 6 -2 10 -25 10 -53z"></path>
<path d="M2088 2441 c-27 -25 -31 -33 -22 -48 6 -10 24 -20 40 -23 l29 -5 -2
-125 c0 -72 -10 -180 -22 -253 -26 -158 -26 -155 4 -169 33 -15 49 0 65 57 9
31 36 72 86 131 71 83 88 114 61 114 -7 0 -29 -11 -49 -25 -64 -44 -63 -46
-59 120 4 172 -6 213 -58 239 -38 20 -35 21 -73 -13z"></path>
<path d="M6335 841 c-58 -33 -134 -111 -192 -196 -54 -81 -123 -208 -123 -228
0 -21 -19 -32 -32 -19 -6 6 -15 37 -19 68 -9 66 -36 109 -69 109 -41 0 -47
-27 -23 -102 42 -128 39 -193 -6 -193 -53 0 -148 154 -158 256 -6 67 -25 104
-53 104 -27 0 -40 -30 -40 -93 0 -29 -3 -56 -6 -59 -3 -4 -29 5 -58 18 -30 14
-98 31 -157 39 -136 21 -179 33 -179 50 0 22 183 107 241 113 59 6 69 17 40
46 -18 17 -33 21 -87 20 -57 -1 -77 -7 -169 -52 -98 -49 -155 -96 -155 -127 0
-27 51 -74 98 -89 26 -9 99 -23 162 -31 113 -16 180 -38 188 -62 10 -34 -124
-110 -251 -142 -41 -10 -80 -22 -86 -25 -23 -14 -10 -36 28 -47 88 -26 282 37
376 122 l54 50 30 -44 c60 -88 135 -137 210 -137 34 0 44 5 71 40 l32 41 34
-39 c43 -51 89 -72 156 -72 78 0 122 16 184 66 30 25 59 42 64 39 6 -3 10 -23
10 -43 0 -77 63 -134 103 -94 18 19 19 24 7 65 -14 52 -9 67 24 67 31 0 41 13
68 90 25 68 29 72 98 88 56 14 63 6 81 -84 10 -51 19 -71 42 -90 27 -22 32
-23 51 -11 25 17 25 27 3 187 -15 117 -55 279 -81 328 -8 15 -30 45 -50 67
l-36 40 -35 -39 c-19 -22 -40 -58 -45 -80 -14 -52 -101 -312 -111 -328 -5 -7
-11 -9 -15 -5 -7 7 4 60 20 99 5 11 -2 27 -21 47 l-28 32 -70 -35 c-38 -19
-110 -49 -159 -66 -101 -35 -116 -44 -116 -71 0 -35 42 -44 122 -26 40 9 76
13 80 9 4 -4 -2 -27 -14 -51 -37 -75 -138 -131 -212 -117 -46 9 -59 34 -54
102 10 116 155 331 278 412 36 23 66 46 68 50 4 12 -37 62 -51 62 -7 0 -34
-13 -62 -29z m455 -247 c0 -36 -24 -67 -49 -62 -19 4 -17 40 5 95 15 35 17 36
30 18 8 -10 14 -33 14 -51z"></path>
<path d="M4095 761 c-27 -10 -91 -37 -142 -60 -89 -40 -94 -41 -122 -26 -43
22 -129 19 -168 -5 -41 -24 -47 -49 -34 -130 6 -36 11 -114 12 -175 1 -60 4
-148 7 -195 l7 -85 35 2 c117 8 127 12 185 77 62 69 115 165 115 208 0 36 -24
84 -49 98 -11 5 -40 10 -65 10 -75 0 -80 6 -45 56 18 27 40 46 57 50 15 3 48
12 74 19 36 11 49 11 57 2 10 -13 51 -344 51 -415 0 -52 26 -82 72 -82 l31 0
-7 112 c-3 62 -13 163 -21 223 -32 232 -32 212 5 232 18 10 44 28 59 41 l26
22 -24 20 c-28 24 -51 25 -116 1z m-345 -171 c0 -5 -4 -10 -10 -10 -5 0 -10 5
-10 10 0 6 5 10 10 10 6 0 10 -4 10 -10z m124 -186 c9 -3 16 -16 16 -28 0 -54
-132 -225 -151 -195 -10 16 -10 152 0 189 6 21 14 26 56 31 28 3 53 7 57 7 3
1 13 -1 22 -4z"></path>
<path d="M4305 692 c-75 -60 -125 -125 -125 -162 0 -19 10 -36 31 -54 29 -25
36 -26 154 -26 146 0 158 -6 127 -67 -21 -40 -48 -68 -94 -96 -52 -32 -27 -77
43 -77 58 0 179 145 179 215 0 15 -14 41 -34 63 l-34 37 -104 3 c-173 5 -183
14 -88 87 33 25 60 52 60 59 0 15 -38 66 -49 66 -4 0 -34 -21 -66 -48z"></path>
<path d="M4876 245 c-27 -8 -80 -19 -117 -26 -104 -18 -142 -73 -65 -93 22 -5
295 46 316 59 15 9 12 41 -4 54 -22 19 -77 21 -130 6z"></path>
</g>
</svg>