 <svg version="1.0" xmlns="http://www.w3.org/2000/svg" width="700.000000pt" height="403.000000pt" viewBox="0 0 700.000000 403.000000" preserveAspectRatio="xMidYMid meet">
<metadata>
Created by potrace 1.12, written by Peter Selinger 2001-2015
</metadata>
<g transform="translate(0.000000,403.000000) scale(0.100000,-0.100000)" fill="#000000" stroke="none">
<path d="M1365 3954 c-74 -12 -173 -52 -255 -103 -197 -123 -359 -312 -437
-511 -6 -14 -15 -36 -21 -50 -34 -84 -45 -279 -19 -350 41 -111 130 -214 227
-262 131 -63 181 -73 365 -73 171 1 239 9 395 47 153 38 197 67 158 106 -17
17 -36 15 -66 -7 -54 -38 -190 -72 -367 -92 -159 -18 -308 4 -436 65 -62 30
-162 123 -189 176 -62 123 -48 300 37 479 87 184 266 369 437 450 116 56 154
65 266 65 103 0 107 -1 191 -42 146 -70 251 -188 357 -398 51 -102 152 -340
152 -360 0 -3 6 -20 14 -37 8 -18 16 -41 19 -52 3 -11 15 -44 26 -74 l21 -55
-25 -42 c-30 -50 -89 -104 -115 -104 -10 0 -29 -4 -42 -9 -71 -28 -190 -60
-239 -64 -31 -3 -65 -10 -75 -17 -11 -6 -89 -35 -174 -64 -299 -103 -368 -131
-585 -242 -183 -93 -301 -168 -433 -278 -89 -74 -231 -233 -262 -292 -8 -16
-32 -55 -52 -86 -21 -31 -38 -61 -38 -65 0 -4 -13 -39 -29 -78 -59 -142 -68
-257 -27 -348 24 -54 78 -107 109 -107 9 0 19 -5 22 -10 10 -16 104 -11 186 9
87 22 235 97 361 183 206 140 455 385 856 838 128 146 237 266 242 268 9 3 0
-26 -64 -211 -25 -70 -50 -155 -55 -190 -5 -34 -14 -82 -20 -107 -18 -80 -24
-318 -12 -405 32 -211 103 -383 209 -504 74 -84 183 -176 266 -225 37 -21 65
-44 63 -50 -2 -6 -17 -14 -33 -17 -16 -4 -126 -32 -244 -61 -118 -30 -259 -65
-313 -78 -104 -25 -128 -40 -107 -65 15 -18 38 -19 94 -4 22 6 57 14 76 19 19
5 82 21 140 36 58 15 121 30 140 34 19 5 69 17 110 29 41 12 115 31 164 43
l89 21 86 -28 c145 -47 175 -56 216 -65 203 -41 251 -50 321 -60 181 -24 368
-32 621 -26 144 3 293 10 330 15 37 6 115 15 173 22 58 6 137 18 175 26 39 9
90 19 115 24 96 18 203 44 325 79 17 5 46 13 65 18 19 5 55 17 80 27 25 9 70
26 100 37 65 24 99 37 123 49 31 16 51 26 126 63 l74 37 42 -45 c108 -118 285
-136 530 -54 170 57 295 128 393 222 103 98 115 166 43 228 -84 72 -265 90
-541 53 -103 -14 -91 -42 13 -35 126 9 312 4 376 -10 162 -34 173 -114 29
-229 -207 -166 -577 -258 -727 -182 -41 21 -91 68 -91 85 0 6 34 36 76 66 120
88 207 208 216 299 5 56 -18 47 -54 -21 -56 -106 -233 -277 -260 -250 -23 23
24 162 90 264 40 62 42 63 162 74 111 10 256 32 283 43 15 6 30 18 34 27 12
32 -12 36 -113 20 -124 -19 -254 -31 -254 -23 0 18 216 214 290 264 25 16 115
66 200 110 401 209 427 225 400 258 -17 21 -25 20 -126 -21 -138 -55 -274
-129 -390 -210 -57 -40 -180 -112 -272 -160 -92 -48 -212 -112 -267 -142 -55
-31 -127 -70 -160 -87 -33 -17 -80 -44 -105 -58 -31 -18 -77 -31 -145 -42 -55
-8 -110 -18 -122 -20 -48 -11 -18 23 93 105 63 47 131 95 150 108 36 23 46 58
19 68 -14 6 -105 -40 -285 -144 -52 -31 -124 -72 -160 -92 -36 -20 -92 -53
-125 -72 -58 -35 -90 -43 -290 -79 -38 -6 -103 -20 -144 -31 -40 -10 -76 -16
-80 -12 -7 7 94 100 128 117 38 19 49 43 28 64 -16 17 -19 16 -54 -2 -20 -11
-83 -64 -139 -117 -81 -77 -110 -98 -140 -104 -22 -3 -90 -19 -152 -35 -160
-41 -164 -40 -113 34 32 48 61 125 61 165 0 15 -7 38 -16 50 -15 22 -14 22 22
22 21 0 67 5 103 11 234 39 408 159 505 348 53 103 71 164 87 294 20 164 -1
319 -72 532 -38 113 -107 258 -160 335 -85 123 -162 213 -238 275 -33 28 -61
54 -61 58 0 4 20 16 46 27 189 82 344 219 360 322 18 106 -55 189 -211 239
-55 18 -370 18 -450 1 -180 -40 -326 -87 -444 -143 -47 -23 -95 -45 -106 -50
-21 -9 -95 -53 -178 -104 -26 -17 -79 -55 -116 -85 -38 -30 -95 -75 -127 -100
-33 -25 -128 -115 -212 -200 -118 -120 -155 -152 -162 -140 -5 8 -20 50 -35
95 -85 264 -210 537 -304 662 -90 122 -167 181 -316 243 -31 13 -198 22 -250
14z m2650 -230 c112 -12 205 -84 205 -158 -1 -102 -103 -199 -320 -303 -95
-46 -95 -46 -125 -28 -79 46 -97 55 -110 55 -9 0 -23 4 -33 9 -210 107 -520
90 -790 -42 -34 -17 -68 -37 -74 -44 -6 -7 -18 -13 -28 -13 -10 0 -37 -16 -61
-35 -23 -20 -51 -41 -63 -47 -27 -14 -119 -82 -175 -130 -24 -21 -46 -36 -49
-34 -14 15 204 229 358 350 198 156 408 273 616 341 126 41 130 42 299 75 86
18 211 19 350 4z m-505 -439 c67 -18 210 -79 210 -90 0 -17 -288 -114 -570
-191 -203 -56 -674 -178 -750 -194 -19 -4 -43 -11 -54 -15 -41 -18 -7 25 84
105 52 46 97 86 100 89 17 20 108 86 190 137 147 92 254 139 385 169 82 19
317 13 405 -10z m338 -167 c55 -37 282 -264 282 -282 0 -7 9 -21 20 -31 11
-10 20 -22 20 -27 0 -5 14 -29 30 -53 17 -24 30 -48 30 -52 0 -5 9 -28 20 -51
11 -22 20 -46 20 -52 0 -5 4 -18 9 -28 6 -9 19 -57 29 -107 90 -407 19 -733
-195 -905 -79 -64 -190 -117 -269 -130 -129 -21 -331 -7 -429 31 -220 85 -356
177 -514 345 -162 172 -307 391 -412 621 -22 48 -54 116 -70 151 -16 35 -29
67 -29 71 0 5 -9 30 -21 56 -17 39 -19 49 -8 56 8 5 104 31 214 58 303 75 466
118 563 146 48 15 120 35 159 46 86 23 461 147 483 160 20 11 16 13 68 -23z
m-1522 -473 c14 -33 38 -94 54 -136 35 -94 174 -372 206 -415 13 -17 24 -34
24 -38 0 -12 102 -158 161 -231 70 -86 205 -218 281 -273 131 -96 383 -212
461 -212 36 0 6 -16 -73 -39 -157 -46 -383 -139 -633 -259 -77 -37 -97 -51
-95 -66 5 -30 34 -43 60 -27 72 45 339 169 488 226 143 54 258 85 320 85 49 0
50 -1 50 -31 0 -35 -44 -120 -98 -191 -41 -54 -29 -50 -318 -124 -99 -25 -192
-49 -209 -54 -16 -4 -61 -17 -100 -28 -38 -10 -115 -31 -170 -46 -91 -24 -192
-53 -269 -77 -54 -17 -257 101 -379 220 -124 119 -191 237 -238 418 -21 78
-24 111 -24 283 1 149 5 214 18 277 75 343 216 649 355 766 33 29 52 37 74 35
25 -3 32 -11 54 -63z m-253 -8 c-7 -14 -70 -84 -224 -251 -76 -83 -308 -348
-359 -411 -140 -172 -428 -459 -584 -583 -68 -54 -236 -163 -299 -194 -81 -40
-200 -78 -246 -78 -82 0 -146 40 -182 114 -21 43 -27 181 -10 214 5 9 15 37
22 62 77 256 418 575 832 778 233 114 564 237 822 307 50 14 122 33 160 44 39
10 72 17 73 16 2 -2 0 -10 -5 -18z m3537 -1143 c0 -4 -26 -34 -57 -68 -50 -54
-63 -62 -112 -73 -66 -14 -111 -16 -111 -5 0 4 21 18 47 32 27 14 86 46 133
72 84 47 100 54 100 42z m-180 -216 c0 -6 -13 -35 -30 -64 -38 -67 -70 -183
-70 -251 l0 -53 -102 -51 c-97 -48 -156 -73 -288 -121 -30 -11 -64 -23 -75
-28 -20 -8 -110 -34 -225 -64 -181 -48 -347 -77 -685 -117 -131 -16 -661 -16
-780 0 -221 29 -305 44 -460 82 -102 24 -177 52 -165 61 3 2 48 14 100 26 52
13 106 27 120 32 56 18 313 88 458 124 34 9 89 23 123 32 33 9 63 14 66 11 3
-3 -19 -39 -49 -79 -105 -142 -113 -159 -86 -186 21 -21 37 -13 52 22 15 36
135 202 185 255 16 17 37 31 47 31 10 0 31 4 48 10 58 18 196 50 216 50 21 0
26 -10 11 -26 -18 -19 -51 -85 -51 -103 0 -10 9 -30 21 -45 23 -29 67 -35 116
-15 119 49 300 144 493 259 130 79 154 90 190 90 37 0 37 -6 0 -50 -17 -19
-30 -39 -30 -46 0 -25 42 -64 68 -64 27 0 191 79 327 156 163 93 199 104 443
133 6 0 12 -4 12 -11z m-514 -76 c-8 -14 -217 -114 -224 -108 -3 4 14 27 39
51 33 34 56 48 89 54 59 12 102 13 96 3z m-586 -106 c0 -15 -380 -208 -432
-220 -39 -9 -37 14 6 73 59 80 59 80 196 112 134 31 230 45 230 35z"></path>
<path d="M6497 1284 c-3 -4 -4 -18 -2 -33 2 -14 9 -69 16 -121 18 -143 47
-210 90 -210 21 0 205 195 237 252 13 22 20 48 17 56 -4 12 -36 -14 -123 -101
-65 -64 -120 -117 -123 -117 -10 0 -49 167 -49 208 0 46 -40 88 -63 66z"></path>
<path d="M1620 1003 c-38 -20 -74 -80 -85 -145 -4 -20 -12 -42 -20 -48 -7 -6
-70 -12 -141 -14 -145 -4 -156 -6 -202 -49 -19 -19 -35 -27 -41 -21 -4 5 -23
54 -42 109 -38 116 -54 145 -80 145 -25 0 -33 -18 -20 -43 15 -29 80 -228 96
-295 7 -30 11 -61 8 -71 -2 -9 5 -25 16 -36 20 -17 20 -20 5 -36 -38 -42 27
-53 97 -16 24 12 76 54 115 92 54 53 73 80 80 110 9 36 13 40 49 46 50 8 65 3
65 -25 1 -11 9 -37 18 -56 41 -83 130 -79 265 13 65 43 92 41 38 -2 -23 -19
-32 -33 -28 -45 9 -23 22 -20 91 18 80 45 114 81 100 104 -6 9 -20 18 -30 20
-42 7 -44 10 -33 36 7 14 25 30 41 35 40 14 35 45 -9 49 -62 6 -163 -70 -163
-123 0 -26 -14 -40 -77 -71 -85 -44 -147 -31 -141 30 3 27 9 32 61 51 68 24
127 68 127 95 0 24 -8 25 -36 5 -26 -17 -102 -45 -128 -45 -16 0 -17 5 -11 36
13 70 28 89 88 108 12 4 17 14 15 28 -4 30 -41 34 -88 11z m-292 -275 c7 -7
12 -17 12 -24 0 -26 -152 -174 -179 -174 -4 0 -4 29 -1 64 6 69 20 94 75 127
34 22 75 25 93 7z"></path>
<path d="M6035 558 c-10 -33 -87 -188 -96 -193 -8 -6 -50 47 -74 95 -36 71
-78 98 -104 66 -21 -25 -3 -55 132 -226 60 -77 73 -74 113 29 18 46 43 104 55
130 12 25 22 62 23 81 1 29 -3 36 -21 38 -15 2 -23 -4 -28 -20z"></path>
<path d="M5251 477 c-6 -8 -14 -31 -19 -53 -6 -32 -13 -41 -41 -50 -19 -6 -41
-21 -50 -33 -20 -26 -31 -18 -31 23 -1 60 -55 92 -137 80 -56 -8 -67 -22 -54
-71 6 -21 11 -78 11 -126 0 -80 2 -90 24 -112 14 -14 26 -35 28 -47 4 -28 34
-35 56 -14 9 8 36 32 59 52 58 49 87 98 80 134 -4 19 -2 30 8 34 17 6 35 -22
35 -54 0 -30 29 -76 56 -91 20 -10 32 -8 75 10 28 11 65 21 81 21 33 0 103 34
166 79 32 24 42 38 42 60 0 37 -28 61 -73 61 -51 0 -55 17 -7 30 37 10 41 14
38 38 -4 36 -35 40 -106 11 -109 -44 -125 -68 -76 -114 21 -20 38 -25 75 -25
27 0 49 -4 49 -9 0 -14 -64 -51 -88 -51 -12 0 -31 -4 -44 -9 -103 -39 -128
-35 -128 19 0 23 7 31 39 43 22 9 42 20 45 26 12 20 -6 41 -36 41 -30 0 -30 1
-25 36 10 58 -22 96 -52 61z m-218 -122 c-5 -16 -33 -21 -33 -7 0 13 22 32 31
26 5 -2 6 -11 2 -19z m77 -105 c0 -13 -89 -110 -101 -110 -10 0 -12 103 -2
113 11 11 103 8 103 -3z"></path>
<path d="M6140 467 c-32 -16 -37 -48 -11 -71 17 -15 25 -17 52 -7 18 6 46 11
63 11 39 1 79 30 74 56 -3 16 -13 19 -78 22 -46 1 -85 -3 -100 -11z"></path>
<path d="M4780 259 c-19 -5 -69 -13 -110 -17 -72 -7 -75 -8 -78 -34 -2 -20 3
-31 22 -43 23 -16 30 -15 107 4 87 22 129 43 129 64 0 14 -20 38 -29 36 -4 -1
-22 -5 -41 -10z"></path>
</g>
</svg>